<svg width="480" height="75" viewBox="0 0 480 75" fill="none" xmlns="http://www.w3.org/2000/svg">
<path d="M53.685 14.05C53.8683 14.2333 53.8317 14.3617 53.575 14.435C53.465 14.3983 53.3367 14.38 53.19 14.38C53.08 14.38 52.97 14.38 52.86 14.38C52.4933 14.38 51.9433 14.49 51.21 14.71C50.5133 14.93 49.5233 15.48 48.24 16.36C46.9567 17.24 45.325 18.5967 43.345 20.43C41.4017 22.2267 39 24.72 36.14 27.91C35.4067 28.7167 34.545 29.7067 33.555 30.88C32.6017 32.0533 31.63 33.245 30.64 34.455C29.6867 35.6283 28.8067 36.765 28 37.865C27.1933 38.9283 26.5883 39.8083 26.185 40.505C26.1117 40.6517 26.0017 40.7983 25.855 40.945C25.7083 41.055 25.5433 41.1283 25.36 41.165C24.8833 41.2383 24.4067 41.3483 23.93 41.495C23.49 41.6783 23.1233 41.9167 22.83 42.21C22.5 42.21 22.4633 42.0267 22.72 41.66C22.83 41.55 22.9217 41.1283 22.995 40.395C23.105 39.6617 23.1967 38.7633 23.27 37.7C23.3433 36.6 23.3983 35.39 23.435 34.07C23.5083 32.7133 23.545 31.3567 23.545 30C23.5817 28.6433 23.6 27.3417 23.6 26.095C23.6367 24.8483 23.655 23.7667 23.655 22.85C23.655 22.3367 23.5267 22.08 23.27 22.08C23.16 22.08 22.9767 22.1717 22.72 22.355C22.4267 22.6117 21.895 23.0883 21.125 23.785C20.3917 24.4817 19.4933 25.325 18.43 26.315C17.4033 27.305 16.2483 28.405 14.965 29.615C13.6817 30.825 12.38 32.0717 11.06 33.355C9.77667 34.6383 8.51167 35.9217 7.265 37.205C6.055 38.4883 4.93667 39.6983 3.91 40.835C3.8 40.945 3.69 41.055 3.58 41.165C3.47 41.275 3.36 41.33 3.25 41.33C2.7 41.33 2.205 41.385 1.765 41.495C1.36167 41.6417 0.976667 41.8067 0.61 41.99C0.353333 41.99 0.298333 41.825 0.445 41.495C0.738333 41.055 1.03167 40.4867 1.325 39.79C1.655 39.0567 2.02167 38.2133 2.425 37.26C2.60833 36.82 2.88333 36.105 3.25 35.115C3.61667 34.0883 4.02 32.9517 4.46 31.705C4.9 30.4217 5.34 29.1017 5.78 27.745C6.25667 26.3517 6.67833 25.05 7.045 23.84C7.44833 22.63 7.77833 21.6033 8.035 20.76C8.29167 19.88 8.42 19.3117 8.42 19.055C8.42 18.5417 8.145 18.285 7.595 18.285C7.08167 18.285 6.55 18.3583 6 18.505C5.48667 18.6517 5.065 18.725 4.735 18.725C4.55167 18.725 4.44167 18.6517 4.405 18.505C4.405 18.3583 4.515 18.2667 4.735 18.23C6.495 17.9 7.85167 17.6433 8.805 17.46C9.75833 17.24 10.455 17.075 10.895 16.965C11.3717 16.855 11.665 16.7817 11.775 16.745C11.9217 16.6717 12.0317 16.635 12.105 16.635C12.2883 16.635 12.38 16.7083 12.38 16.855C12.38 17.0017 12.325 17.1117 12.215 17.185C12.105 17.295 11.9767 17.4967 11.83 17.79C11.6833 18.0467 11.5183 18.3767 11.335 18.78C11.1883 19.1467 11.0233 19.55 10.84 19.99C10.6567 20.43 10.4917 20.8517 10.345 21.255C9.39167 23.785 8.45667 26.48 7.54 29.34C6.66 32.2 5.835 34.9867 5.065 37.7C4.955 38.1033 4.93667 38.3233 5.01 38.36C5.12 38.36 5.23 38.305 5.34 38.195C6.91667 36.7283 8.62167 35.0967 10.455 33.3C12.325 31.5033 14.2133 29.6883 16.12 27.855C18.0633 25.985 19.9517 24.1883 21.785 22.465C23.6183 20.705 25.305 19.1283 26.845 17.735C26.955 17.6983 27.0467 17.735 27.12 17.845C27.23 17.955 27.2483 18.0467 27.175 18.12C26.9917 18.1933 26.8267 18.34 26.68 18.56C26.5333 18.78 26.4417 19.0183 26.405 19.275C26.3317 19.8983 26.2583 20.6867 26.185 21.64C26.1117 22.5933 26.0383 23.62 25.965 24.72C25.9283 25.82 25.8917 26.9567 25.855 28.13C25.855 29.2667 25.855 30.385 25.855 31.485C25.855 33.1717 25.8733 34.5833 25.91 35.72C25.9467 36.8567 25.965 37.7733 25.965 38.47C25.965 38.7267 26.0017 38.855 26.075 38.855C26.185 38.855 26.295 38.7817 26.405 38.635C27.065 37.8283 27.78 36.9667 28.55 36.05C29.3567 35.0967 30.1633 34.125 30.97 33.135C31.8133 32.145 32.6383 31.1733 33.445 30.22C34.2883 29.2667 35.0583 28.3867 35.755 27.58C36.5983 26.6267 37.515 25.6183 38.505 24.555C39.495 23.4917 40.485 22.4467 41.475 21.42C42.5017 20.3933 43.4917 19.4033 44.445 18.45C45.3983 17.4967 46.26 16.6717 47.03 15.975C47.7267 15.3517 48.4417 14.765 49.175 14.215C49.945 13.665 50.8067 13.39 51.76 13.39C51.8333 13.39 51.9617 13.4267 52.145 13.5C52.365 13.5367 52.5667 13.5917 52.75 13.665C52.97 13.7383 53.1717 13.8117 53.355 13.885C53.5383 13.9583 53.6483 14.0133 53.685 14.05ZM54.1112 31.65C53.4879 32.4933 52.7179 33.2633 51.8012 33.96C50.9212 34.62 49.9129 34.95 48.7762 34.95C48.1529 34.95 47.5296 34.8033 46.9062 34.51C46.3196 34.18 45.8429 33.7033 45.4763 33.08C45.2196 33.6667 44.8896 34.345 44.4862 35.115C44.0829 35.8483 43.6062 36.6 43.0562 37.37C42.5062 38.1033 41.8829 38.7817 41.1862 39.405C40.5262 40.0283 39.8112 40.5417 39.0412 40.945C38.3812 41.2383 37.8312 41.385 37.3912 41.385C36.0712 41.385 35.4112 40.7983 35.4112 39.625C35.4112 38.965 35.5212 38.2867 35.7412 37.59C35.9979 36.8933 36.3096 36.215 36.6762 35.555C37.0429 34.895 37.4279 34.2717 37.8312 33.685C38.2712 33.0983 38.6746 32.6217 39.0412 32.255C39.8112 31.4117 40.6912 30.6967 41.6812 30.11C42.6712 29.5233 43.7346 29.175 44.8712 29.065C44.9446 28.7717 45.0546 28.4417 45.2013 28.075C45.3479 27.6717 45.6046 27.4333 45.9712 27.36C46.1546 27.3233 46.3379 27.2867 46.5212 27.25C46.7046 27.2133 46.8696 27.1583 47.0162 27.085C47.1262 27.0117 47.2362 27.0117 47.3462 27.085C47.4562 27.1217 47.4746 27.2133 47.4012 27.36C47.1446 27.7633 46.9429 28.2767 46.7963 28.9C46.6863 29.5233 46.6313 30.2017 46.6313 30.935C46.6313 31.9617 46.8146 32.805 47.1812 33.465C47.5846 34.125 48.2629 34.455 49.2162 34.455C50.1696 34.455 51.0312 34.1433 51.8012 33.52C52.5712 32.8967 53.2129 32.2183 53.7263 31.485C53.7996 31.3017 53.9096 31.2467 54.0562 31.32C54.2396 31.3933 54.2579 31.5033 54.1112 31.65ZM45.0362 32.035C44.9629 31.705 44.9079 31.32 44.8712 30.88C44.8346 30.44 44.8162 30.0183 44.8162 29.615C44.8162 29.4317 44.7429 29.34 44.5962 29.34C44.1929 29.34 43.7712 29.4867 43.3312 29.78C42.8912 30.0367 42.4513 30.4033 42.0113 30.88C41.5713 31.32 41.1313 31.8333 40.6913 32.42C40.2513 33.0067 39.8479 33.6117 39.4812 34.235C39.0046 35.0417 38.5646 35.9217 38.1612 36.875C37.7946 37.7917 37.6296 38.6717 37.6662 39.515C37.6662 39.7717 37.7029 40.01 37.7762 40.23C37.8862 40.45 38.1062 40.56 38.4362 40.56C39.0596 40.56 39.7379 40.2117 40.4712 39.515C41.2046 38.8183 41.9012 38.0117 42.5612 37.095C43.2212 36.1417 43.7712 35.1883 44.2112 34.235C44.6879 33.2817 44.9629 32.5483 45.0362 32.035ZM61.8113 29.78C61.5912 30.0367 61.3529 30.3483 61.0962 30.715C60.8762 31.0817 60.7296 31.3567 60.6562 31.54C60.6196 31.65 60.5463 31.705 60.4363 31.705C60.3996 31.705 60.3446 31.65 60.2712 31.54C60.1979 31.43 60.0879 31.32 59.9412 31.21C59.8312 31.0633 59.6662 30.935 59.4462 30.825C59.2263 30.715 58.9146 30.66 58.5112 30.66C58.0346 30.66 57.5029 30.825 56.9162 31.155C56.3296 31.485 55.8162 31.8517 55.3762 32.255C54.6796 32.8417 54.0562 33.4833 53.5062 34.18C52.9929 34.8767 52.4979 35.61 52.0213 36.38C51.5446 37.1133 51.0862 37.8833 50.6463 38.69C50.2063 39.46 49.7296 40.2483 49.2162 41.055C49.1796 41.165 49.0696 41.22 48.8862 41.22C48.8129 41.22 48.6479 41.11 48.3912 40.89C48.1712 40.67 48.0612 40.505 48.0612 40.395C48.0612 40.175 48.1896 39.845 48.4463 39.405C49.0329 38.3783 49.6196 37.3517 50.2062 36.325C50.8296 35.2617 51.3979 34.2717 51.9112 33.355C52.4612 32.4383 52.9379 31.65 53.3412 30.99C53.7446 30.2933 54.0196 29.78 54.1662 29.45C54.3496 29.12 54.4779 28.955 54.5512 28.955C54.6246 28.955 54.8079 29.0467 55.1013 29.23C55.3946 29.4133 55.5412 29.67 55.5412 30C55.5412 30.11 55.4679 30.2933 55.3212 30.55C55.2112 30.8067 55.0646 31.0817 54.8812 31.375C54.7346 31.6317 54.5879 31.8883 54.4413 32.145C54.2946 32.4017 54.1846 32.585 54.1112 32.695C54.0012 32.8783 53.9829 32.97 54.0562 32.97C54.1296 32.97 54.2212 32.915 54.3313 32.805C54.6979 32.4383 55.1379 32.035 55.6512 31.595C56.2012 31.155 56.7696 30.7517 57.3562 30.385C57.9429 29.9817 58.5112 29.6517 59.0613 29.395C59.6479 29.1383 60.1612 29.01 60.6013 29.01C60.9312 29.01 61.2062 29.1017 61.4262 29.285C61.6829 29.4317 61.8113 29.5967 61.8113 29.78ZM90.407 8.22C90.407 8.62333 90.297 9.02667 90.077 9.43C89.8936 9.83334 89.7653 10.2917 89.692 10.805C89.692 10.9883 89.6186 11.0983 89.472 11.135C89.362 11.135 89.307 11.0433 89.307 10.86C89.307 10.75 89.3253 10.6583 89.362 10.585C89.3986 10.475 89.417 10.365 89.417 10.255C89.417 9.815 89.307 9.43 89.087 9.1C88.867 8.77 88.5736 8.51333 88.207 8.33C87.877 8.11 87.5103 7.96333 87.107 7.89C86.7036 7.78 86.3186 7.725 85.952 7.725C85.1086 7.725 84.0453 7.945 82.762 8.385C81.5153 8.825 80.1586 9.79667 78.692 11.3C77.3353 12.6933 75.997 14.3067 74.677 16.14C73.3936 17.9367 72.1653 19.7883 70.992 21.695C70.2586 22.905 69.4336 24.2983 68.517 25.875C67.6003 27.415 66.7203 28.9367 65.877 30.44C65.0336 31.9067 64.282 33.2267 63.622 34.4C62.962 35.5367 62.5403 36.3067 62.357 36.71C62.2103 37.0033 62.1553 37.15 62.192 37.15C62.2653 37.15 62.412 37.04 62.632 36.82C63.2553 36.1967 63.897 35.5917 64.557 35.005C65.217 34.4183 65.932 33.7767 66.702 33.08C66.6653 32.9333 66.647 32.695 66.647 32.365C66.647 32.0717 66.867 31.7967 67.307 31.54C67.7836 31.2467 68.1503 31.0633 68.407 30.99C68.4803 30.99 68.517 31.0633 68.517 31.21C68.517 31.32 68.5353 31.4117 68.572 31.485C68.7553 31.3383 69.177 30.99 69.837 30.44C70.497 29.8533 71.212 29.2667 71.982 28.68C72.752 28.0567 73.4486 27.5067 74.072 27.03C74.732 26.5167 75.1353 26.26 75.282 26.26C75.392 26.26 75.4836 26.315 75.557 26.425C75.667 26.4983 75.777 26.6817 75.887 26.975C75.887 27.195 75.7036 27.36 75.337 27.47C74.897 27.6167 74.3653 27.8733 73.742 28.24C73.1186 28.6067 72.477 29.0283 71.817 29.505C71.1936 29.9817 70.5703 30.4583 69.947 30.935C69.3603 31.4117 68.8836 31.815 68.517 32.145C68.5536 32.6217 68.627 33.1533 68.737 33.74C68.847 34.3267 68.9753 34.9133 69.122 35.5C69.2686 36.0867 69.4336 36.6733 69.617 37.26C69.837 37.81 70.057 38.305 70.277 38.745C70.4603 39.1483 70.717 39.4417 71.047 39.625C71.4136 39.8083 71.7803 39.9 72.147 39.9C72.697 39.9 73.302 39.68 73.962 39.24C74.6586 38.8 75.3553 38.25 76.052 37.59C76.7486 36.8933 77.4086 36.16 78.032 35.39C78.692 34.5833 79.2603 33.8317 79.737 33.135C79.847 32.9517 79.957 32.915 80.067 33.025C80.2136 33.135 80.232 33.245 80.122 33.355C79.572 34.0883 78.9853 34.8217 78.362 35.555C77.7386 36.2883 77.097 36.985 76.437 37.645C75.8136 38.305 75.1903 38.8917 74.567 39.405C73.9436 39.9183 73.3753 40.3217 72.862 40.615C71.982 41.055 71.2303 41.275 70.607 41.275C70.1303 41.275 69.7086 41.165 69.342 40.945C68.9753 40.725 68.6453 40.34 68.352 39.79C68.0953 39.2033 67.8386 38.415 67.582 37.425C67.362 36.435 67.1053 35.17 66.812 33.63C65.6386 34.7667 64.4653 35.94 63.292 37.15C62.1186 38.36 61.1286 39.68 60.322 41.11C60.2486 41.2933 60.102 41.385 59.882 41.385C59.6253 41.385 59.4236 41.2383 59.277 40.945C59.1303 40.615 59.057 40.3217 59.057 40.065C59.057 39.9917 59.057 39.9183 59.057 39.845C59.057 39.7717 59.0753 39.6983 59.112 39.625C59.4786 39.1117 59.8636 38.4883 60.267 37.755C60.6703 36.985 61.1653 36.0683 61.752 35.005C62.3753 33.905 63.127 32.6033 64.007 31.1C64.887 29.5967 65.9686 27.8183 67.252 25.765C67.8386 24.8117 68.4986 23.785 69.232 22.685C70.002 21.5483 70.7903 20.4117 71.597 19.275C72.4403 18.1017 73.2836 16.965 74.127 15.865C75.007 14.7283 75.8503 13.7017 76.657 12.785C77.2436 12.125 77.867 11.465 78.527 10.805C79.2236 10.1083 79.9386 9.485 80.672 8.935C81.4053 8.34833 82.157 7.835 82.927 7.395C83.7336 6.955 84.5403 6.64333 85.347 6.46C85.7136 6.38667 86.062 6.31333 86.392 6.24C86.7586 6.16667 87.107 6.13 87.437 6.13C87.7303 6.13 88.042 6.185 88.372 6.295C88.7386 6.36833 89.0686 6.49667 89.362 6.68C89.6553 6.82667 89.8936 7.02833 90.077 7.285C90.297 7.54167 90.407 7.85333 90.407 8.22ZM87.107 21.53C87.107 21.97 86.9053 22.41 86.502 22.85C86.1353 23.29 85.7136 23.51 85.237 23.51C84.797 23.51 84.577 23.29 84.577 22.85C84.577 22.3733 84.742 21.915 85.072 21.475C85.4386 21.035 85.8786 20.815 86.392 20.815C86.8686 20.815 87.107 21.0533 87.107 21.53ZM89.582 33.795C88.702 34.9317 87.6936 36.0133 86.557 37.04C85.4203 38.0667 84.3753 38.8917 83.422 39.515C82.6886 39.9917 81.937 40.3583 81.167 40.615C80.397 40.8717 79.7003 41 79.077 41C78.857 41 78.6003 40.9817 78.307 40.945C78.0136 40.9083 77.7386 40.8167 77.482 40.67C77.262 40.5233 77.0603 40.34 76.877 40.12C76.7303 39.8633 76.657 39.5333 76.657 39.13C76.657 38.6533 76.8403 38.0117 77.207 37.205C77.5736 36.3617 77.9953 35.5 78.472 34.62C78.9853 33.74 79.4803 32.8967 79.957 32.09C80.4703 31.2833 80.8736 30.6783 81.167 30.275C81.3503 29.9817 81.662 29.7433 82.102 29.56C82.5786 29.34 82.8903 29.23 83.037 29.23C83.2203 29.23 83.312 29.285 83.312 29.395C83.312 29.4683 83.2753 29.5783 83.202 29.725C83.1653 29.8717 83.1103 29.9817 83.037 30.055C82.5603 30.7883 82.0653 31.595 81.552 32.475C81.0753 33.355 80.6353 34.2167 80.232 35.06C79.8286 35.8667 79.4986 36.6183 79.242 37.315C79.022 38.0117 78.912 38.5617 78.912 38.965C78.912 39.405 79.022 39.735 79.242 39.955C79.4986 40.1383 79.8286 40.23 80.232 40.23C80.9653 40.23 81.772 39.9917 82.652 39.515C83.532 39.0017 84.3936 38.3967 85.237 37.7C86.117 37.0033 86.9236 36.27 87.657 35.5C88.3903 34.73 88.9586 34.07 89.362 33.52C89.5453 33.3367 89.637 33.3 89.637 33.41C89.6736 33.4833 89.6553 33.6117 89.582 33.795ZM104.039 33.905C103.379 34.8217 102.609 35.7567 101.729 36.71C100.886 37.6267 99.9692 38.4517 98.9792 39.185C98.0259 39.9183 97.0359 40.5233 96.0092 41C95.0192 41.4767 94.0476 41.715 93.0942 41.715C92.6542 41.715 92.2509 41.6417 91.8842 41.495C91.5176 41.385 91.3342 41.0733 91.3342 40.56C91.3342 40.0467 91.5176 39.405 91.8842 38.635C92.2509 37.8283 92.6726 36.985 93.1492 36.105C93.6626 35.225 94.1759 34.3267 94.6892 33.41C95.2392 32.4933 95.6792 31.65 96.0092 30.88C96.0826 30.6967 96.0826 30.55 96.0092 30.44C95.9726 30.2933 95.8626 30.275 95.6792 30.385C95.2759 30.6417 94.7992 30.99 94.2492 31.43C93.6992 31.87 93.1309 32.3467 92.5442 32.86C91.9942 33.3367 91.4442 33.8317 90.8942 34.345C90.3809 34.8583 89.9592 35.3167 89.6292 35.72C89.0426 36.6367 88.5292 37.48 88.0892 38.25C87.6859 39.02 87.1726 39.8817 86.5492 40.835C86.4026 41.055 86.2926 41.165 86.2192 41.165C86.0359 41.165 85.8709 40.9633 85.7242 40.56C85.6142 40.1567 85.5592 39.9 85.5592 39.79C85.5592 39.46 85.7792 39.02 86.2192 38.47C86.6959 37.8833 87.2092 37.2417 87.7592 36.545C88.3459 35.3717 88.9509 34.1433 89.5742 32.86C90.1976 31.54 90.7292 30.3667 91.1692 29.34C91.2792 29.1567 91.4442 29.065 91.6642 29.065C91.8842 29.065 92.0859 29.1567 92.2692 29.34C92.4526 29.5233 92.5442 29.725 92.5442 29.945C92.5442 30.0917 92.2692 30.605 91.7192 31.485C91.2059 32.3283 90.6926 33.3183 90.1792 34.455C90.8759 33.8317 91.6276 33.1717 92.4342 32.475C93.2776 31.7783 94.0659 31.1367 94.7992 30.55C95.5692 29.9633 96.2292 29.4867 96.7792 29.12C97.3659 28.7167 97.7692 28.515 97.9892 28.515C98.1359 28.515 98.2642 28.6067 98.3742 28.79C98.5209 28.9367 98.5942 29.0833 98.5942 29.23C98.5942 29.3767 98.5026 29.5967 98.3192 29.89C97.9159 30.4767 97.4209 31.2283 96.8342 32.145C96.2476 33.0617 95.6792 34.015 95.1292 35.005C94.6159 35.9583 94.1759 36.875 93.8092 37.755C93.4426 38.635 93.2592 39.3317 93.2592 39.845C93.2592 40.285 93.3509 40.5967 93.5342 40.78C93.7176 40.9267 94.0109 41 94.4142 41C95.0376 41 95.7709 40.7617 96.6142 40.285C97.4576 39.8083 98.3192 39.2217 99.1992 38.525C100.116 37.7917 100.978 36.985 101.784 36.105C102.591 35.225 103.251 34.3817 103.764 33.575C103.838 33.465 103.948 33.4467 104.094 33.52C104.241 33.5567 104.223 33.685 104.039 33.905ZM114.376 26.315C114.376 26.645 114.284 26.975 114.101 27.305C112.267 30.715 110.617 33.74 109.151 36.38C107.684 38.9833 106.291 41.385 104.971 43.585C103.651 45.8217 102.349 47.9667 101.066 50.02C99.7824 52.11 98.4258 54.3283 96.9958 56.675C95.8224 58.545 94.5574 60.2867 93.2008 61.9C91.8074 63.55 90.2858 64.9617 88.6358 66.135C86.9491 67.345 85.1341 68.28 83.1908 68.94C81.2108 69.6367 79.0474 69.985 76.7008 69.985C74.9774 69.985 73.5658 69.7467 72.4658 69.27C71.3291 68.83 70.4491 68.225 69.8258 67.455C69.1658 66.685 68.7074 65.805 68.4508 64.815C68.1941 63.825 68.0658 62.7983 68.0658 61.735C68.0658 61.295 68.1024 60.8183 68.1758 60.305C68.2491 59.8283 68.3408 59.4433 68.4508 59.15C68.4874 59.0033 68.5608 58.93 68.6708 58.93C68.7808 58.93 68.8358 59.0217 68.8358 59.205C68.7624 59.4617 68.6891 59.755 68.6158 60.085C68.5424 60.4517 68.5058 60.8367 68.5058 61.24C68.5058 62.5233 68.7808 63.6233 69.3308 64.54C69.8808 65.4933 70.6508 66.2633 71.6408 66.85C72.5941 67.4733 73.7308 67.9317 75.0508 68.225C76.3708 68.555 77.7824 68.72 79.2858 68.72C80.8624 68.72 82.4574 68.4633 84.0708 67.95C85.6474 67.4367 87.2241 66.575 88.8008 65.365C90.3774 64.1917 91.9358 62.6517 93.4758 60.745C94.9791 58.8383 96.4641 56.4917 97.9308 53.705C98.8841 51.945 99.8924 50.075 100.956 48.095C102.019 46.115 103.046 44.2083 104.036 42.375C105.026 40.5783 105.906 38.965 106.676 37.535C107.482 36.0683 108.069 35.005 108.436 34.345C107.702 35.335 106.987 36.27 106.291 37.15C105.594 38.03 104.934 38.8 104.311 39.46C103.724 40.12 103.156 40.6333 102.606 41C102.056 41.4033 101.561 41.605 101.121 41.605C100.791 41.605 100.516 41.495 100.296 41.275C100.076 41.055 99.9658 40.7067 99.9658 40.23C99.9658 39.68 100.186 38.91 100.626 37.92C101.102 36.8933 101.707 35.83 102.441 34.73C103.211 33.63 104.072 32.585 105.026 31.595C105.979 30.605 106.951 29.8717 107.941 29.395C108.821 28.955 109.701 28.735 110.581 28.735C110.837 28.735 111.039 28.7533 111.186 28.79C111.479 28.2767 111.772 27.7633 112.066 27.25C112.396 26.7367 112.726 26.1867 113.056 25.6C113.312 25.1233 113.551 24.885 113.771 24.885C113.917 24.885 114.046 25.05 114.156 25.38C114.302 25.71 114.376 26.0217 114.376 26.315ZM110.856 29.56C110.746 29.5233 110.599 29.505 110.416 29.505C110.269 29.505 110.141 29.505 110.031 29.505C109.517 29.505 109.022 29.56 108.546 29.67C108.106 29.7433 107.721 29.9267 107.391 30.22C106.474 30.99 105.686 31.8517 105.026 32.805C104.366 33.7583 103.816 34.6933 103.376 35.61C102.936 36.5267 102.606 37.37 102.386 38.14C102.202 38.8733 102.111 39.405 102.111 39.735C102.111 40.1383 102.221 40.34 102.441 40.34C102.661 40.34 103.101 40.0283 103.761 39.405C104.421 38.7817 105.154 37.9567 105.961 36.93C106.804 35.9033 107.666 34.7483 108.546 33.465C109.426 32.1817 110.196 30.88 110.856 29.56ZM131.142 22.96C131.069 22.9967 130.996 23.015 130.922 23.015C130.849 22.9783 130.812 22.9233 130.812 22.85C130.922 22.5567 131.032 22.2083 131.142 21.805C131.252 21.365 131.344 20.98 131.417 20.65C131.417 20.2833 131.637 19.9717 132.077 19.715C133.031 19.2017 134.094 18.725 135.267 18.285C136.477 17.845 137.669 17.4967 138.842 17.24C141.006 16.8 143.261 16.58 145.607 16.58C148.504 16.58 150.741 16.91 152.317 17.57C153.931 18.1933 154.737 19.33 154.737 20.98C154.737 21.7867 154.462 22.63 153.912 23.51C153.399 24.3533 152.666 25.1417 151.712 25.875C150.759 26.6083 149.586 27.25 148.192 27.8C146.836 28.3133 145.332 28.6617 143.682 28.845C143.352 28.8817 143.242 29.0283 143.352 29.285C144.049 30.5683 145.002 32.1817 146.212 34.125C147.459 36.0317 148.852 38.0667 150.392 40.23C151.199 41.33 152.097 42.3933 153.087 43.42C154.114 44.4467 155.214 45.345 156.387 46.115C157.561 46.9217 158.807 47.5633 160.127 48.04C161.484 48.5167 162.877 48.755 164.307 48.755C166.507 48.755 168.689 48.1867 170.852 47.05C171.072 46.9033 171.182 46.94 171.182 47.16C171.182 47.3067 171.109 47.3983 170.962 47.435C169.789 48.0583 168.561 48.5533 167.277 48.92C165.994 49.3233 164.619 49.525 163.152 49.525C161.062 49.525 159.229 49.305 157.652 48.865C156.076 48.4617 154.627 47.82 153.307 46.94C151.987 46.06 150.722 44.9233 149.512 43.53C148.339 42.1367 147.111 40.45 145.827 38.47C145.461 37.8833 145.021 37.1683 144.507 36.325C143.994 35.445 143.462 34.5467 142.912 33.63C142.362 32.7133 141.831 31.8333 141.317 30.99C140.841 30.11 140.437 29.395 140.107 28.845C140.107 28.6983 140.162 28.625 140.272 28.625C141.922 28.625 143.426 28.4783 144.782 28.185C146.176 27.8917 147.367 27.4517 148.357 26.865C149.384 26.2417 150.172 25.4717 150.722 24.555C151.309 23.6017 151.602 22.5017 151.602 21.255C151.602 20.815 151.511 20.3567 151.327 19.88C151.181 19.3667 150.887 18.9267 150.447 18.56C150.044 18.1567 149.494 17.8267 148.797 17.57C148.101 17.3133 147.221 17.185 146.157 17.185C145.791 17.185 145.424 17.24 145.057 17.35C144.727 17.4233 144.434 17.6067 144.177 17.9C143.774 18.3767 143.206 19.1833 142.472 20.32C141.739 21.42 140.932 22.7033 140.052 24.17C139.172 25.6367 138.256 27.195 137.302 28.845C136.349 30.495 135.432 32.1083 134.552 33.685C133.709 35.225 132.957 36.6367 132.297 37.92C131.637 39.1667 131.142 40.1567 130.812 40.89C130.776 40.9633 130.702 41 130.592 41C130.409 40.9633 130.226 40.945 130.042 40.945C129.859 40.9083 129.676 40.89 129.492 40.89C129.309 40.89 129.089 40.89 128.832 40.89C128.576 40.89 128.301 40.9267 128.007 41C127.567 41.2567 127.146 41.605 126.742 42.045C126.669 42.045 126.577 42.0267 126.467 41.99C126.394 41.9533 126.394 41.8983 126.467 41.825C129.841 36.9117 132.682 32.53 134.992 28.68C137.302 24.83 139.301 21.31 140.987 18.12C141.097 17.8267 141.116 17.6433 141.042 17.57C141.006 17.4967 140.896 17.46 140.712 17.46C139.612 17.5333 138.512 17.7533 137.412 18.12C136.312 18.4867 135.286 18.9267 134.332 19.44C133.709 19.8067 133.122 20.3017 132.572 20.925C132.022 21.5483 131.546 22.2267 131.142 22.96ZM181.693 37.59C180.3 39.0567 178.852 40.23 177.348 41.11C175.845 42.0267 174.195 42.485 172.398 42.485C171.665 42.485 171.152 42.2833 170.858 41.88C170.602 41.5133 170.473 41.0183 170.473 40.395C170.473 39.7717 170.62 39.02 170.913 38.14C171.207 37.2233 171.61 36.2333 172.123 35.17C171.683 35.7933 171.207 36.3983 170.693 36.985C170.217 37.5717 169.722 38.1033 169.208 38.58C168.732 39.02 168.255 39.3867 167.778 39.68C167.302 39.9367 166.843 40.065 166.403 40.065C165.597 40.065 165.193 39.6617 165.193 38.855C165.193 38.5617 165.34 38.0667 165.633 37.37C165.963 36.6733 166.568 35.6467 167.448 34.29C167.852 33.6667 168.255 33.025 168.658 32.365C169.062 31.6683 169.263 31.0633 169.263 30.55C169.263 30.22 169.135 29.945 168.878 29.725C168.658 29.4683 168.237 29.34 167.613 29.34C166.807 29.34 165.872 29.505 164.808 29.835C163.782 30.165 162.883 30.4767 162.113 30.77C162.15 31.3567 161.967 32.2367 161.563 33.41C161.16 34.5833 160.61 35.7567 159.913 36.93C159.217 38.1033 158.41 39.13 157.493 40.01C156.613 40.89 155.678 41.33 154.688 41.33C154.212 41.33 153.827 41.1833 153.533 40.89C153.24 40.5967 153.093 40.1933 153.093 39.68C153.093 38.69 153.313 37.6817 153.753 36.655C154.193 35.6283 154.743 34.675 155.403 33.795C156.063 32.915 156.778 32.145 157.548 31.485C158.318 30.7883 159.033 30.275 159.693 29.945C159.62 29.7983 159.583 29.5967 159.583 29.34C159.583 29.2667 159.602 29.175 159.638 29.065C159.675 28.955 159.748 28.9 159.858 28.9C160.042 29.0833 160.225 29.1933 160.408 29.23C160.592 29.23 160.83 29.23 161.123 29.23C161.747 29.23 162.572 29.1933 163.598 29.12C164.625 29.01 165.615 28.955 166.568 28.955C167.962 28.955 168.915 29.175 169.428 29.615C169.942 30.0183 170.198 30.66 170.198 31.54C170.198 31.98 170.052 32.5483 169.758 33.245C169.502 33.905 169.135 34.6383 168.658 35.445C168.145 36.2883 167.76 36.985 167.503 37.535C167.247 38.0483 167.118 38.4517 167.118 38.745C167.118 39.0383 167.247 39.185 167.503 39.185C167.76 39.185 168.127 38.9833 168.603 38.58C169.117 38.1767 169.63 37.7 170.143 37.15C170.693 36.6 171.207 36.0317 171.683 35.445C172.16 34.8217 172.508 34.29 172.728 33.85C173.095 33.2267 173.48 32.5667 173.883 31.87C174.287 31.1733 174.727 30.4767 175.203 29.78C175.387 29.5967 175.643 29.45 175.973 29.34C176.34 29.23 176.743 29.1383 177.183 29.065C177.513 29.065 177.678 29.1383 177.678 29.285C177.495 29.3583 177.312 29.4683 177.128 29.615C176.982 29.725 176.798 29.945 176.578 30.275C175.955 31.2283 175.387 32.2 174.873 33.19C174.36 34.18 173.902 35.115 173.498 35.995C173.132 36.875 172.838 37.6633 172.618 38.36C172.435 39.0567 172.343 39.5883 172.343 39.955C172.343 40.4683 172.453 40.9083 172.673 41.275C172.893 41.6417 173.278 41.825 173.828 41.825C174.782 41.825 175.9 41.5133 177.183 40.89C178.467 40.23 179.897 39.0383 181.473 37.315C181.62 37.2417 181.693 37.3333 181.693 37.59ZM160.903 31.76C160.903 31.65 160.903 31.5217 160.903 31.375C160.903 31.2283 160.885 31.1 160.848 30.99C160.702 30.9167 160.537 30.8067 160.353 30.66C160.17 30.5133 160.023 30.385 159.913 30.275C159.4 30.4217 158.85 30.8433 158.263 31.54C157.677 32.2367 157.127 33.0433 156.613 33.96C156.1 34.8767 155.678 35.83 155.348 36.82C155.018 37.7733 154.853 38.6167 154.853 39.35C154.853 39.7167 154.927 39.9917 155.073 40.175C155.257 40.3583 155.458 40.45 155.678 40.45C156.082 40.45 156.577 40.1933 157.163 39.68C157.787 39.1667 158.373 38.5067 158.923 37.7C159.473 36.8567 159.932 35.9217 160.298 34.895C160.702 33.8683 160.903 32.8233 160.903 31.76ZM193.471 20.925C193.178 20.9983 192.848 21.145 192.481 21.365C192.114 21.5483 191.839 21.7867 191.656 22.08C190.813 23.2533 189.988 24.4817 189.181 25.765C188.411 27.0483 187.659 28.3317 186.926 29.615H193.746C193.856 29.6883 193.911 29.7617 193.911 29.835C193.911 29.9083 193.874 29.9633 193.801 30C193.508 30 193.068 30.0183 192.481 30.055C191.894 30.055 191.253 30.0733 190.556 30.11C189.859 30.1467 189.144 30.1833 188.411 30.22C187.678 30.2567 187.036 30.2933 186.486 30.33C185.459 32.1633 184.671 33.7217 184.121 35.005C183.571 36.2883 183.296 37.4067 183.296 38.36C183.296 39.68 183.901 40.34 185.111 40.34C185.698 40.34 186.358 40.1933 187.091 39.9C187.861 39.57 188.668 39.1483 189.511 38.635C189.621 38.525 189.731 38.5433 189.841 38.69C189.951 38.8 189.914 38.8917 189.731 38.965C188.484 39.7717 187.329 40.3583 186.266 40.725C185.203 41.0917 184.121 41.275 183.021 41.275C182.434 41.275 181.921 41.11 181.481 40.78C181.041 40.4133 180.821 39.8083 180.821 38.965C180.821 38.2317 181.151 37.15 181.811 35.72C182.471 34.29 183.443 32.53 184.726 30.44C184.286 30.4767 183.736 30.5317 183.076 30.605C182.453 30.6417 182.086 30.66 181.976 30.66C181.793 30.66 181.701 30.5867 181.701 30.44C181.848 30.1833 182.086 29.9267 182.416 29.67L185.221 29.615C185.551 29.065 185.918 28.46 186.321 27.8C186.724 27.1033 187.128 26.425 187.531 25.765C187.934 25.0683 188.338 24.4083 188.741 23.785C189.181 23.125 189.566 22.52 189.896 21.97C190.299 21.7867 190.849 21.5483 191.546 21.255C192.279 20.9617 192.921 20.7233 193.471 20.54C193.544 20.54 193.599 20.595 193.636 20.705C193.673 20.7783 193.618 20.8517 193.471 20.925ZM201.834 21.53C201.834 21.97 201.632 22.41 201.229 22.85C200.862 23.29 200.44 23.51 199.964 23.51C199.524 23.51 199.304 23.29 199.304 22.85C199.304 22.3733 199.469 21.915 199.799 21.475C200.165 21.035 200.605 20.815 201.119 20.815C201.595 20.815 201.834 21.0533 201.834 21.53ZM204.309 33.795C203.429 34.9317 202.42 36.0133 201.284 37.04C200.147 38.0667 199.102 38.8917 198.149 39.515C197.415 39.9917 196.664 40.3583 195.894 40.615C195.124 40.8717 194.427 41 193.804 41C193.584 41 193.327 40.9817 193.034 40.945C192.74 40.9083 192.465 40.8167 192.209 40.67C191.989 40.5233 191.787 40.34 191.604 40.12C191.457 39.8633 191.384 39.5333 191.384 39.13C191.384 38.6533 191.567 38.0117 191.934 37.205C192.3 36.3617 192.722 35.5 193.199 34.62C193.712 33.74 194.207 32.8967 194.684 32.09C195.197 31.2833 195.6 30.6783 195.894 30.275C196.077 29.9817 196.389 29.7433 196.829 29.56C197.305 29.34 197.617 29.23 197.764 29.23C197.947 29.23 198.039 29.285 198.039 29.395C198.039 29.4683 198.002 29.5783 197.929 29.725C197.892 29.8717 197.837 29.9817 197.764 30.055C197.287 30.7883 196.792 31.595 196.279 32.475C195.802 33.355 195.362 34.2167 194.959 35.06C194.555 35.8667 194.225 36.6183 193.969 37.315C193.749 38.0117 193.639 38.5617 193.639 38.965C193.639 39.405 193.749 39.735 193.969 39.955C194.225 40.1383 194.555 40.23 194.959 40.23C195.692 40.23 196.499 39.9917 197.379 39.515C198.259 39.0017 199.12 38.3967 199.964 37.7C200.844 37.0033 201.65 36.27 202.384 35.5C203.117 34.73 203.685 34.07 204.089 33.52C204.272 33.3367 204.364 33.3 204.364 33.41C204.4 33.4833 204.382 33.6117 204.309 33.795ZM218.766 33.905C218.106 34.8217 217.336 35.7567 216.456 36.71C215.612 37.6267 214.696 38.4517 213.706 39.185C212.752 39.9183 211.762 40.5233 210.736 41C209.746 41.4767 208.774 41.715 207.821 41.715C207.381 41.715 206.977 41.6417 206.611 41.495C206.244 41.385 206.061 41.0733 206.061 40.56C206.061 40.0467 206.244 39.405 206.611 38.635C206.977 37.8283 207.399 36.985 207.876 36.105C208.389 35.225 208.902 34.3267 209.416 33.41C209.966 32.4933 210.406 31.65 210.736 30.88C210.809 30.6967 210.809 30.55 210.736 30.44C210.699 30.2933 210.589 30.275 210.406 30.385C210.002 30.6417 209.526 30.99 208.976 31.43C208.426 31.87 207.857 32.3467 207.271 32.86C206.721 33.3367 206.171 33.8317 205.621 34.345C205.107 34.8583 204.686 35.3167 204.356 35.72C203.769 36.6367 203.256 37.48 202.816 38.25C202.412 39.02 201.899 39.8817 201.276 40.835C201.129 41.055 201.019 41.165 200.946 41.165C200.762 41.165 200.597 40.9633 200.451 40.56C200.341 40.1567 200.286 39.9 200.286 39.79C200.286 39.46 200.506 39.02 200.946 38.47C201.422 37.8833 201.936 37.2417 202.486 36.545C203.072 35.3717 203.677 34.1433 204.301 32.86C204.924 31.54 205.456 30.3667 205.896 29.34C206.006 29.1567 206.171 29.065 206.391 29.065C206.611 29.065 206.812 29.1567 206.996 29.34C207.179 29.5233 207.271 29.725 207.271 29.945C207.271 30.0917 206.996 30.605 206.446 31.485C205.932 32.3283 205.419 33.3183 204.906 34.455C205.602 33.8317 206.354 33.1717 207.161 32.475C208.004 31.7783 208.792 31.1367 209.526 30.55C210.296 29.9633 210.956 29.4867 211.506 29.12C212.092 28.7167 212.496 28.515 212.716 28.515C212.862 28.515 212.991 28.6067 213.101 28.79C213.247 28.9367 213.321 29.0833 213.321 29.23C213.321 29.3767 213.229 29.5967 213.046 29.89C212.642 30.4767 212.147 31.2283 211.561 32.145C210.974 33.0617 210.406 34.015 209.856 35.005C209.342 35.9583 208.902 36.875 208.536 37.755C208.169 38.635 207.986 39.3317 207.986 39.845C207.986 40.285 208.077 40.5967 208.261 40.78C208.444 40.9267 208.737 41 209.141 41C209.764 41 210.497 40.7617 211.341 40.285C212.184 39.8083 213.046 39.2217 213.926 38.525C214.842 37.7917 215.704 36.985 216.511 36.105C217.317 35.225 217.977 34.3817 218.491 33.575C218.564 33.465 218.674 33.4467 218.821 33.52C218.967 33.5567 218.949 33.685 218.766 33.905ZM240.982 36.655C239.809 38.0483 238.562 39.0567 237.242 39.68C235.959 40.2667 234.877 40.67 233.997 40.89C232.714 41.1833 231.431 41.385 230.147 41.495C228.864 41.605 227.654 41.66 226.517 41.66C225.454 41.66 224.922 41.5317 224.922 41.275C224.922 41.2017 225.069 41.0367 225.362 40.78C225.656 40.5233 225.986 40.3583 226.352 40.285C226.719 40.285 227.122 40.3033 227.562 40.34C228.002 40.3767 228.461 40.395 228.937 40.395C229.267 40.395 229.616 40.34 229.982 40.23C230.386 40.12 230.752 39.9183 231.082 39.625C231.412 39.3317 231.669 38.9283 231.852 38.415C232.072 37.9017 232.182 37.2417 232.182 36.435C232.182 36.0317 232.164 35.61 232.127 35.17C232.091 34.73 231.999 34.3083 231.852 33.905C229.726 36.325 227.471 38.1767 225.087 39.46C222.704 40.7067 220.522 41.33 218.542 41.33C218.249 41.33 217.919 41.3117 217.552 41.275C217.222 41.2383 216.892 41.1467 216.562 41C216.269 40.8167 216.012 40.5783 215.792 40.285C215.609 39.9917 215.517 39.5883 215.517 39.075C215.517 38.4517 215.774 37.5717 216.287 36.435C216.801 35.2983 217.497 34.18 218.377 33.08C219.257 31.9433 220.266 30.9717 221.402 30.165C222.539 29.3217 223.731 28.9 224.977 28.9C225.344 28.9 225.601 29.0283 225.747 29.285C225.894 29.505 225.967 29.78 225.967 30.11C225.967 30.33 225.894 30.6233 225.747 30.99C225.637 31.3567 225.417 31.7233 225.087 32.09C224.757 32.42 224.336 32.7317 223.822 33.025C223.309 33.2817 222.667 33.41 221.897 33.41C221.164 33.41 220.614 33.2083 220.247 32.805C220.174 32.7317 220.082 32.75 219.972 32.86C219.826 33.0067 219.624 33.2817 219.367 33.685C219.111 34.0883 218.854 34.565 218.597 35.115C218.341 35.665 218.121 36.2517 217.937 36.875C217.754 37.4617 217.662 38.0667 217.662 38.69C217.662 40.01 218.267 40.67 219.477 40.67C219.881 40.67 220.467 40.615 221.237 40.505C222.044 40.3583 222.961 40.0467 223.987 39.57C225.051 39.0567 226.224 38.3233 227.507 37.37C228.791 36.4167 230.111 35.1333 231.467 33.52C231.651 33.2633 231.742 33.0617 231.742 32.915C231.742 32.3283 231.926 31.76 232.292 31.21C232.659 30.66 233.099 30.165 233.612 29.725C234.162 29.285 234.712 28.9367 235.262 28.68C235.849 28.4233 236.362 28.295 236.802 28.295C237.022 28.295 237.224 28.3683 237.407 28.515C237.627 28.6617 237.737 28.8817 237.737 29.175C237.737 29.395 237.719 29.56 237.682 29.67C237.572 29.78 237.444 29.9083 237.297 30.055C237.151 30.2017 237.022 30.275 236.912 30.275C236.839 30.275 236.729 30.11 236.582 29.78C236.436 29.45 236.161 29.285 235.757 29.285C235.024 29.285 234.474 29.505 234.107 29.945C233.741 30.385 233.557 30.9717 233.557 31.705C233.557 32.2183 233.631 32.8783 233.777 33.685C233.924 34.4917 233.997 35.2617 233.997 35.995C233.997 36.7283 233.741 37.48 233.227 38.25C232.714 39.02 232.091 39.57 231.357 39.9C231.064 40.0467 230.936 40.175 230.972 40.285C231.009 40.3583 231.394 40.395 232.127 40.395C233.557 40.395 235.042 40.065 236.582 39.405C238.122 38.745 239.516 37.7367 240.762 36.38C240.946 36.1967 241.074 36.16 241.147 36.27C241.221 36.3433 241.166 36.4717 240.982 36.655ZM223.932 30.605C223.932 30.4583 223.896 30.275 223.822 30.055C223.786 29.835 223.602 29.725 223.272 29.725C223.052 29.725 222.796 29.8167 222.502 30C222.209 30.1833 221.916 30.4217 221.622 30.715C221.329 30.9717 221.072 31.2467 220.852 31.54C220.669 31.8333 220.541 32.09 220.467 32.31C220.467 32.6767 220.761 32.86 221.347 32.86C221.861 32.86 222.411 32.6767 222.997 32.31C223.621 31.9067 223.932 31.3383 223.932 30.605ZM269.041 31.65C268.418 32.4933 267.648 33.2633 266.731 33.96C265.851 34.62 264.843 34.95 263.706 34.95C263.083 34.95 262.459 34.8033 261.836 34.51C261.249 34.18 260.773 33.7033 260.406 33.08C260.149 33.6667 259.819 34.345 259.416 35.115C259.013 35.8483 258.536 36.6 257.986 37.37C257.436 38.1033 256.813 38.7817 256.116 39.405C255.456 40.0283 254.741 40.5417 253.971 40.945C253.311 41.2383 252.761 41.385 252.321 41.385C251.001 41.385 250.341 40.7983 250.341 39.625C250.341 38.965 250.451 38.2867 250.671 37.59C250.928 36.8933 251.239 36.215 251.606 35.555C251.973 34.895 252.358 34.2717 252.761 33.685C253.201 33.0983 253.604 32.6217 253.971 32.255C254.741 31.4117 255.621 30.6967 256.611 30.11C257.601 29.5233 258.664 29.175 259.801 29.065C259.874 28.7717 259.984 28.4417 260.131 28.075C260.278 27.6717 260.534 27.4333 260.901 27.36C261.084 27.3233 261.268 27.2867 261.451 27.25C261.634 27.2133 261.799 27.1583 261.946 27.085C262.056 27.0117 262.166 27.0117 262.276 27.085C262.386 27.1217 262.404 27.2133 262.331 27.36C262.074 27.7633 261.873 28.2767 261.726 28.9C261.616 29.5233 261.561 30.2017 261.561 30.935C261.561 31.9617 261.744 32.805 262.111 33.465C262.514 34.125 263.193 34.455 264.146 34.455C265.099 34.455 265.961 34.1433 266.731 33.52C267.501 32.8967 268.143 32.2183 268.656 31.485C268.729 31.3017 268.839 31.2467 268.986 31.32C269.169 31.3933 269.188 31.5033 269.041 31.65ZM259.966 32.035C259.893 31.705 259.838 31.32 259.801 30.88C259.764 30.44 259.746 30.0183 259.746 29.615C259.746 29.4317 259.673 29.34 259.526 29.34C259.123 29.34 258.701 29.4867 258.261 29.78C257.821 30.0367 257.381 30.4033 256.941 30.88C256.501 31.32 256.061 31.8333 255.621 32.42C255.181 33.0067 254.778 33.6117 254.411 34.235C253.934 35.0417 253.494 35.9217 253.091 36.875C252.724 37.7917 252.559 38.6717 252.596 39.515C252.596 39.7717 252.633 40.01 252.706 40.23C252.816 40.45 253.036 40.56 253.366 40.56C253.989 40.56 254.668 40.2117 255.401 39.515C256.134 38.8183 256.831 38.0117 257.491 37.095C258.151 36.1417 258.701 35.1883 259.141 34.235C259.618 33.2817 259.893 32.5483 259.966 32.035ZM298.906 1.675C298.906 1.82167 298.869 2.07834 298.796 2.445C298.759 2.81167 298.704 3.215 298.631 3.655C298.594 4.095 298.539 4.535 298.466 4.975C298.429 5.415 298.411 5.745 298.411 5.965C298.338 6.03833 298.246 6.075 298.136 6.075C298.063 6.075 297.989 6.03833 297.916 5.965C297.989 5.67167 298.026 5.415 298.026 5.195C298.063 4.975 298.081 4.755 298.081 4.535C298.081 3.80167 297.769 3.23333 297.146 2.83C296.559 2.42667 295.716 2.225 294.616 2.225C293.846 2.225 293.039 2.35333 292.196 2.61C291.389 2.86667 290.546 3.325 289.666 3.985C288.823 4.645 287.924 5.525 286.971 6.625C286.054 7.725 285.101 9.11833 284.111 10.805C283.561 11.7583 282.883 12.9867 282.076 14.49C281.269 15.9933 280.408 17.6067 279.491 19.33C278.574 21.0167 277.658 22.7583 276.741 24.555C275.824 26.315 274.981 27.965 274.211 29.505C274.541 29.505 275.091 29.505 275.861 29.505C276.631 29.4683 277.419 29.45 278.226 29.45C279.033 29.45 279.766 29.45 280.426 29.45C281.123 29.45 281.581 29.45 281.801 29.45C281.984 29.56 282.039 29.7433 281.966 30C281.819 30 281.453 30 280.866 30C280.279 30 279.583 30.0183 278.776 30.055C277.969 30.055 277.126 30.0733 276.246 30.11C275.403 30.11 274.633 30.11 273.936 30.11C272.726 32.4567 271.443 34.8217 270.086 37.205C268.766 39.5517 267.428 41.825 266.071 44.025C264.751 46.225 263.431 48.26 262.111 50.13C260.828 52.0367 259.636 53.705 258.536 55.135C255.786 58.655 253.183 61.625 250.726 64.045C248.233 66.5017 245.868 68.4817 243.631 69.985C241.394 71.525 239.304 72.625 237.361 73.285C235.381 73.9817 233.511 74.33 231.751 74.33C231.238 74.33 230.688 74.275 230.101 74.165C229.478 74.055 228.891 73.835 228.341 73.505C227.754 73.175 227.241 72.6983 226.801 72.075C226.361 71.4883 226.031 70.7 225.811 69.71C225.811 69.4167 225.848 69.2883 225.921 69.325C225.994 69.3617 226.068 69.4717 226.141 69.655C226.178 69.9117 226.324 70.2417 226.581 70.645C226.838 71.085 227.223 71.5067 227.736 71.91C228.213 72.3133 228.818 72.6433 229.551 72.9C230.284 73.1933 231.164 73.34 232.191 73.34C233.841 73.3033 235.638 72.9917 237.581 72.405C239.488 71.855 241.504 70.865 243.631 69.435C245.758 68.005 247.994 66.08 250.341 63.66C252.651 61.2767 255.053 58.2517 257.546 54.585C258.866 52.6417 260.186 50.5517 261.506 48.315C262.789 46.115 264.036 43.915 265.246 41.715C266.493 39.5517 267.648 37.4617 268.711 35.445C269.811 33.4283 270.801 31.6683 271.681 30.165C270.104 30.275 268.858 30.385 267.941 30.495C267.024 30.605 266.291 30.7883 265.741 31.045C265.191 31.265 264.751 31.6133 264.421 32.09C264.128 32.53 263.779 33.1533 263.376 33.96L263.211 33.905C263.724 32.695 264.238 31.7967 264.751 31.21C265.264 30.5867 265.741 30.2017 266.181 30.055C266.474 29.9817 266.859 29.9083 267.336 29.835C267.849 29.7617 268.381 29.7067 268.931 29.67C269.518 29.6333 270.086 29.5967 270.636 29.56C271.186 29.5233 271.663 29.505 272.066 29.505C273.899 26.1317 275.659 23.015 277.346 20.155C279.069 17.2583 280.848 14.435 282.681 11.685C283.671 10.1817 284.734 8.73333 285.871 7.34C287.008 5.91 288.163 4.66333 289.336 3.6C290.509 2.5 291.664 1.63833 292.801 1.015C293.974 0.355001 295.093 0.025001 296.156 0.025001C296.889 0.025001 297.531 0.190001 298.081 0.520002C298.631 0.850001 298.906 1.235 298.906 1.675ZM308.926 28.295C308.926 28.3683 308.871 28.5517 308.761 28.845C308.651 29.1017 308.505 29.285 308.321 29.395C307.918 29.395 307.405 29.4133 306.781 29.45C306.195 29.45 305.571 29.4683 304.911 29.505C304.251 29.505 303.591 29.505 302.931 29.505C302.271 29.505 301.685 29.505 301.171 29.505C300.585 29.505 299.943 29.505 299.246 29.505C298.586 29.4683 298.055 29.4133 297.651 29.34C297.358 29.34 297.12 29.4867 296.936 29.78C295.69 31.9067 294.663 33.74 293.856 35.28C293.086 36.7833 292.555 37.92 292.261 38.69C292.151 39.02 292.096 39.3133 292.096 39.57C292.096 39.9 292.243 40.1933 292.536 40.45C292.83 40.67 293.508 40.78 294.571 40.78C294.791 40.78 294.901 40.8533 294.901 41C294.901 41.11 294.81 41.1833 294.626 41.22C294.406 41.2567 294.186 41.275 293.966 41.275C293.783 41.275 293.581 41.275 293.361 41.275C292.225 41.275 291.308 41.2567 290.611 41.22C289.951 41.1833 289.438 41.1283 289.071 41.055C288.705 40.9817 288.466 40.89 288.356 40.78C288.283 40.67 288.246 40.5233 288.246 40.34C288.246 40.1567 288.338 39.8817 288.521 39.515C289.255 38.1217 290.153 36.6367 291.216 35.06C292.28 33.4833 293.196 32.0167 293.966 30.66C295.14 28.6433 296.331 26.535 297.541 24.335C298.751 22.0983 299.796 19.99 300.676 18.01C300.823 17.6433 300.731 17.4417 300.401 17.405C300.145 17.3683 299.778 17.35 299.301 17.35C298.861 17.3133 298.495 17.295 298.201 17.295C298.018 17.295 297.908 17.295 297.871 17.295C297.871 17.2583 297.871 17.2033 297.871 17.13C297.871 16.91 297.963 16.8 298.146 16.8C298.77 16.8367 299.595 16.855 300.621 16.855C301.648 16.855 302.601 16.855 303.481 16.855C304.288 16.855 305.168 16.8367 306.121 16.8C307.111 16.7267 308.101 16.635 309.091 16.525C310.081 16.3783 311.035 16.2133 311.951 16.03C312.868 15.81 313.656 15.5533 314.316 15.26C314.39 15.2233 314.463 15.205 314.536 15.205C314.72 15.205 314.811 15.26 314.811 15.37C314.481 15.7367 314.225 16.1583 314.041 16.635C313.895 17.0017 313.675 17.185 313.381 17.185C312.721 17.2217 312.006 17.2583 311.236 17.295C310.466 17.295 309.678 17.3133 308.871 17.35C308.065 17.35 307.276 17.3683 306.506 17.405C305.773 17.405 305.131 17.4233 304.581 17.46C304.288 17.4967 304.068 17.57 303.921 17.68C303.811 17.79 303.683 17.955 303.536 18.175C303.206 18.6517 302.785 19.3483 302.271 20.265C301.758 21.145 301.208 22.08 300.621 23.07C300.071 24.06 299.54 25.0133 299.026 25.93C298.55 26.8467 298.165 27.58 297.871 28.13C297.871 28.35 298.183 28.5517 298.806 28.735C299.43 28.9183 300.328 29.01 301.501 29.01C302.785 29.01 304.05 28.955 305.296 28.845C306.58 28.6983 307.753 28.4783 308.816 28.185L308.926 28.295ZM320.586 34.455C319.963 35.225 319.211 36.0317 318.331 36.875C317.488 37.6817 316.553 38.4333 315.526 39.13C314.536 39.79 313.491 40.34 312.391 40.78C311.328 41.1833 310.265 41.385 309.201 41.385C307.478 41.385 306.616 40.615 306.616 39.075C306.616 38.0483 306.873 36.9483 307.386 35.775C307.936 34.565 308.633 33.465 309.476 32.475C310.32 31.4483 311.236 30.605 312.226 29.945C313.253 29.2483 314.225 28.9 315.141 28.9C315.655 28.9 316.003 28.9917 316.186 29.175C316.406 29.3583 316.516 29.5967 316.516 29.89C316.516 30.33 316.37 30.8067 316.076 31.32C315.82 31.8333 315.416 32.3283 314.866 32.805C314.316 33.245 313.62 33.63 312.776 33.96C311.933 34.2533 310.925 34.4 309.751 34.4C309.568 34.73 309.366 35.2617 309.146 35.995C308.926 36.6917 308.816 37.4067 308.816 38.14C308.816 39.6433 309.495 40.395 310.851 40.395C311.695 40.395 312.556 40.1933 313.436 39.79C314.353 39.3867 315.233 38.8917 316.076 38.305C316.92 37.6817 317.69 37.0217 318.386 36.325C319.12 35.5917 319.725 34.9133 320.201 34.29C320.275 34.2167 320.348 34.1983 320.421 34.235C320.531 34.2717 320.586 34.345 320.586 34.455ZM314.811 30.165C314.811 29.6883 314.573 29.45 314.096 29.45C313.73 29.45 313.345 29.5967 312.941 29.89C312.575 30.1467 312.208 30.495 311.841 30.935C311.475 31.375 311.126 31.8517 310.796 32.365C310.466 32.8783 310.191 33.3733 309.971 33.85C310.045 33.8867 310.173 33.9233 310.356 33.96C310.54 33.96 310.686 33.96 310.796 33.96C311.86 33.96 312.795 33.5933 313.601 32.86C314.408 32.09 314.811 31.1917 314.811 30.165ZM338.796 36.27C338.282 36.8567 337.659 37.5167 336.926 38.25C336.229 38.9833 335.477 39.68 334.671 40.34C333.864 41 333.021 41.55 332.141 41.99C331.297 42.43 330.472 42.65 329.666 42.65C328.932 42.65 328.419 42.5033 328.126 42.21C327.832 41.9167 327.686 41.4583 327.686 40.835C327.686 40.4317 327.887 39.7717 328.291 38.855C328.731 37.9383 329.207 36.985 329.721 35.995C330.234 35.005 330.692 34.07 331.096 33.19C331.536 32.2733 331.756 31.6317 331.756 31.265C331.756 31.045 331.664 30.935 331.481 30.935C331.004 31.1917 330.454 31.5767 329.831 32.09C329.244 32.5667 328.657 33.0983 328.071 33.685C327.484 34.2717 326.934 34.84 326.421 35.39C325.944 35.94 325.577 36.3983 325.321 36.765C325.064 37.1317 324.807 37.5717 324.551 38.085C324.294 38.5983 324.037 39.0933 323.781 39.57C323.561 40.0467 323.322 40.45 323.066 40.78C322.846 41.11 322.644 41.275 322.461 41.275C322.277 41.275 322.112 41.1833 321.966 41C321.819 40.8167 321.746 40.6333 321.746 40.45C321.746 40.34 321.801 40.1567 321.911 39.9C322.021 39.6067 322.222 39.2583 322.516 38.855C322.992 38.195 323.414 37.4983 323.781 36.765C324.184 36.0317 324.514 35.3533 324.771 34.73C325.064 34.1067 325.284 33.575 325.431 33.135C325.577 32.695 325.651 32.4383 325.651 32.365C325.651 32.0717 325.577 31.925 325.431 31.925C325.211 31.925 324.826 32.1633 324.276 32.64C323.762 33.08 323.194 33.63 322.571 34.29C321.947 34.95 321.324 35.6467 320.701 36.38C320.114 37.1133 319.619 37.7733 319.216 38.36C318.702 39.13 318.262 39.8083 317.896 40.395C317.529 40.9817 317.254 41.275 317.071 41.275C316.777 41.275 316.594 41.1467 316.521 40.89C316.484 40.6333 316.466 40.3767 316.466 40.12C316.466 39.8267 316.539 39.5883 316.686 39.405C317.676 37.8283 318.647 36.215 319.601 34.565C320.554 32.915 321.507 31.2833 322.461 29.67C322.644 29.34 322.846 29.175 323.066 29.175C323.249 29.175 323.414 29.285 323.561 29.505C323.707 29.6883 323.781 29.8717 323.781 30.055C323.524 30.7883 323.084 31.6867 322.461 32.75C321.837 33.8133 321.287 34.785 320.811 35.665C322.277 33.9783 323.506 32.7133 324.496 31.87C325.486 30.99 326.292 30.55 326.916 30.55C327.319 30.55 327.521 30.825 327.521 31.375C327.521 31.7417 327.356 32.31 327.026 33.08C326.696 33.8133 326.402 34.4183 326.146 34.895C326.072 35.0417 326.054 35.115 326.091 35.115C326.164 35.0783 326.237 35.0233 326.311 34.95C326.751 34.4367 327.246 33.905 327.796 33.355C328.382 32.7683 328.987 32.2183 329.611 31.705C330.271 31.1917 330.912 30.715 331.536 30.275C332.196 29.835 332.801 29.4867 333.351 29.23C333.901 29.23 334.176 29.4867 334.176 30C334.176 30.11 334.157 30.22 334.121 30.33C334.084 30.44 334.029 30.5683 333.956 30.715C333.772 31.1183 333.424 31.7783 332.911 32.695C332.434 33.6117 331.939 34.6017 331.426 35.665C330.912 36.6917 330.454 37.7 330.051 38.69C329.684 39.6433 329.501 40.3767 329.501 40.89C329.501 41.6233 329.849 41.99 330.546 41.99C331.206 41.99 331.902 41.77 332.636 41.33C333.369 40.89 334.102 40.3583 334.836 39.735C335.569 39.1117 336.247 38.47 336.871 37.81C337.494 37.1133 338.026 36.5083 338.466 35.995C338.612 35.775 338.759 35.6833 338.906 35.72C339.052 35.7567 339.016 35.94 338.796 36.27ZM356.283 33.465C355.44 34.4917 354.505 35.5367 353.478 36.6C352.488 37.6267 351.48 38.5617 350.453 39.405C349.426 40.2483 348.4 40.9267 347.373 41.44C346.383 41.9533 345.466 42.21 344.623 42.21C343.89 42.21 343.376 42.0267 343.083 41.66C342.79 41.2933 342.643 40.835 342.643 40.285C342.643 39.7717 342.79 39.0933 343.083 38.25C343.413 37.37 343.89 36.435 344.513 35.445C344.036 36.0683 343.486 36.7283 342.863 37.425C342.24 38.1217 341.598 38.7633 340.938 39.35C340.278 39.9 339.618 40.3767 338.958 40.78C338.298 41.1467 337.711 41.33 337.198 41.33C336.428 41.33 336.043 40.945 336.043 40.175C336.043 39.3317 336.373 38.2683 337.033 36.985C337.693 35.7017 338.573 34.4733 339.673 33.3C340.81 32.09 342.093 31.0633 343.523 30.22C344.953 29.34 346.438 28.9 347.978 28.9C348.161 28.5333 348.326 28.2767 348.473 28.13C348.62 27.9833 348.766 27.8733 348.913 27.8L350.453 27.36L350.563 27.415C350.38 27.5983 350.196 27.8367 350.013 28.13C349.866 28.3867 349.701 28.6617 349.518 28.955C349.701 28.955 349.976 28.9733 350.343 29.01C350.71 29.0467 350.985 29.0833 351.168 29.12C351.351 29.1933 351.443 29.285 351.443 29.395C351.443 29.505 351.388 29.56 351.278 29.56C351.058 29.4867 350.728 29.4317 350.288 29.395C349.848 29.3583 349.518 29.34 349.298 29.34C347.611 32.31 346.365 34.675 345.558 36.435C344.788 38.1583 344.403 39.4417 344.403 40.285C344.403 40.615 344.476 40.89 344.623 41.11C344.806 41.33 345.155 41.44 345.668 41.44C346.255 41.44 346.951 41.2383 347.758 40.835C348.565 40.395 349.426 39.8083 350.343 39.075C351.26 38.305 352.195 37.425 353.148 36.435C354.138 35.445 355.073 34.4 355.953 33.3C356.026 33.19 356.1 33.1717 356.173 33.245C356.246 33.2817 356.283 33.355 356.283 33.465ZM347.703 29.285C346.456 29.285 345.265 29.725 344.128 30.605C342.991 31.485 341.983 32.53 341.103 33.74C340.223 34.9133 339.508 36.0867 338.958 37.26C338.445 38.4333 338.188 39.295 338.188 39.845C338.188 40.1383 338.298 40.285 338.518 40.285C338.738 40.285 339.068 40.1383 339.508 39.845C339.985 39.5517 340.516 39.1667 341.103 38.69C341.69 38.1767 342.276 37.59 342.863 36.93C343.486 36.27 344.055 35.555 344.568 34.785C345.155 33.905 345.723 32.97 346.273 31.98C346.823 30.99 347.318 30.11 347.758 29.34L347.703 29.285ZM379.117 5.14C379.117 5.65333 378.915 6.405 378.512 7.395C378.108 8.385 377.522 9.54 376.752 10.86C376.018 12.1433 375.102 13.5367 374.002 15.04C372.938 16.5067 371.71 17.9733 370.317 19.44C368.96 20.9067 367.457 22.3183 365.807 23.675C364.157 24.995 362.397 26.1683 360.527 27.195C360.197 27.7817 359.738 28.57 359.152 29.56C358.565 30.55 357.978 31.595 357.392 32.695C356.842 33.795 356.347 34.8767 355.907 35.94C355.503 37.0033 355.302 37.9017 355.302 38.635C355.302 39.8083 355.833 40.395 356.897 40.395C357.813 40.395 358.767 40.1383 359.757 39.625C360.747 39.1117 361.682 38.4883 362.562 37.755C363.478 37.0217 364.322 36.2517 365.092 35.445C365.898 34.6017 366.577 33.85 367.127 33.19C367.383 32.9333 367.53 32.8783 367.567 33.025C367.603 33.135 367.548 33.2633 367.402 33.41C366.742 34.2167 365.953 35.0783 365.037 35.995C364.157 36.9117 363.203 37.755 362.177 38.525C361.187 39.295 360.142 39.9367 359.042 40.45C357.942 40.9633 356.842 41.22 355.742 41.22C354.788 41.22 354.092 41 353.652 40.56C353.248 40.0833 353.047 39.515 353.047 38.855C353.047 38.195 353.322 37.26 353.872 36.05C354.458 34.8033 355.137 33.5017 355.907 32.145C356.677 30.7883 357.447 29.505 358.217 28.295C358.987 27.085 359.555 26.1683 359.922 25.545C360.545 24.4817 361.187 23.3817 361.847 22.245C362.543 21.0717 363.222 19.935 363.882 18.835C364.542 17.735 365.165 16.69 365.752 15.7C366.375 14.6733 366.943 13.775 367.457 13.005C368.08 12.0517 368.722 11.1533 369.382 10.31C370.042 9.46667 370.885 8.62333 371.912 7.78C373.305 6.60667 374.588 5.70834 375.762 5.085C376.935 4.46167 377.723 4.15 378.127 4.15C378.42 4.15 378.658 4.24167 378.842 4.425C379.025 4.57167 379.117 4.81 379.117 5.14ZM376.642 6.57C376.642 5.98333 376.403 5.69 375.927 5.69C375.743 5.69 375.542 5.745 375.322 5.855C375.102 5.965 374.808 6.20334 374.442 6.57C374.112 6.9 373.69 7.37667 373.177 8C372.7 8.62333 372.077 9.43 371.307 10.42C371.013 10.8233 370.592 11.41 370.042 12.18C369.528 12.95 368.85 13.9767 368.007 15.26C367.2 16.5067 366.21 18.065 365.037 19.935C363.9 21.7683 362.543 23.95 360.967 26.48C363.167 25.2333 365.22 23.73 367.127 21.97C369.07 20.1733 370.738 18.34 372.132 16.47C373.525 14.6 374.625 12.785 375.432 11.025C376.238 9.265 376.642 7.78 376.642 6.57ZM378.078 34.455C377.455 35.225 376.703 36.0317 375.823 36.875C374.98 37.6817 374.045 38.4333 373.018 39.13C372.028 39.79 370.983 40.34 369.883 40.78C368.82 41.1833 367.757 41.385 366.693 41.385C364.97 41.385 364.108 40.615 364.108 39.075C364.108 38.0483 364.365 36.9483 364.878 35.775C365.428 34.565 366.125 33.465 366.968 32.475C367.812 31.4483 368.728 30.605 369.718 29.945C370.745 29.2483 371.717 28.9 372.633 28.9C373.147 28.9 373.495 28.9917 373.678 29.175C373.898 29.3583 374.008 29.5967 374.008 29.89C374.008 30.33 373.862 30.8067 373.568 31.32C373.312 31.8333 372.908 32.3283 372.358 32.805C371.808 33.245 371.112 33.63 370.268 33.96C369.425 34.2533 368.417 34.4 367.243 34.4C367.06 34.73 366.858 35.2617 366.638 35.995C366.418 36.6917 366.308 37.4067 366.308 38.14C366.308 39.6433 366.987 40.395 368.343 40.395C369.187 40.395 370.048 40.1933 370.928 39.79C371.845 39.3867 372.725 38.8917 373.568 38.305C374.412 37.6817 375.182 37.0217 375.878 36.325C376.612 35.5917 377.217 34.9133 377.693 34.29C377.767 34.2167 377.84 34.1983 377.913 34.235C378.023 34.2717 378.078 34.345 378.078 34.455ZM372.303 30.165C372.303 29.6883 372.065 29.45 371.588 29.45C371.222 29.45 370.837 29.5967 370.433 29.89C370.067 30.1467 369.7 30.495 369.333 30.935C368.967 31.375 368.618 31.8517 368.288 32.365C367.958 32.8783 367.683 33.3733 367.463 33.85C367.537 33.8867 367.665 33.9233 367.848 33.96C368.032 33.96 368.178 33.96 368.288 33.96C369.352 33.96 370.287 33.5933 371.093 32.86C371.9 32.09 372.303 31.1917 372.303 30.165ZM397.333 29.23C397.369 29.45 397.608 29.615 398.048 29.725C398.488 29.835 399.001 29.9083 399.588 29.945C400.211 29.9817 400.853 30 401.513 30C402.173 30 402.723 30 403.163 30C404.336 30 405.289 30.0183 406.023 30.055C406.756 30.055 407.269 30.0917 407.563 30.165C407.929 30.275 408.131 30.33 408.168 30.33C408.241 30.2933 408.314 30.1467 408.388 29.89C408.534 29.1567 408.718 28.1667 408.938 26.92C409.158 25.6733 409.378 24.4267 409.598 23.18C409.818 21.9333 410.001 20.8517 410.148 19.935C410.331 18.9817 410.441 18.4317 410.478 18.285C410.551 17.9917 410.551 17.845 410.478 17.845C410.404 17.8083 410.221 17.9 409.928 18.12C409.818 18.1933 409.506 18.45 408.993 18.89C408.479 19.2933 407.819 19.825 407.013 20.485C406.243 21.145 405.381 21.8783 404.428 22.685C403.511 23.455 402.594 24.2433 401.678 25.05C400.798 25.82 399.973 26.5717 399.203 27.305C398.433 28.0383 397.809 28.68 397.333 29.23ZM383.143 42.65C383.179 41.99 383.418 41.4033 383.858 40.89C384.334 40.34 384.958 39.6983 385.728 38.965C392.768 32.4017 398.451 27.2317 402.778 23.455C407.104 19.6417 409.873 17.3133 411.083 16.47C411.376 16.2867 411.816 16.1217 412.403 15.975C412.989 15.8283 413.393 15.645 413.613 15.425C413.833 15.205 413.943 15.1867 413.943 15.37C413.979 15.5167 413.961 15.6633 413.888 15.81C413.521 16.36 413.228 17.0017 413.008 17.735C412.788 18.4317 412.641 19.0183 412.568 19.495C412.531 19.6417 412.421 20.1367 412.238 20.98C412.091 21.7867 411.908 22.795 411.688 24.005C411.468 25.1783 411.229 26.4617 410.973 27.855C410.753 29.2117 410.533 30.5317 410.313 31.815C410.093 33.0617 409.909 34.1983 409.763 35.225C409.653 36.215 409.579 36.9117 409.543 37.315C409.543 37.9383 409.598 38.4333 409.708 38.8C409.854 39.13 410.019 39.3867 410.203 39.57C410.386 39.7167 410.569 39.8083 410.753 39.845C410.936 39.8817 411.083 39.9 411.193 39.9C411.376 39.9 411.596 39.8817 411.853 39.845C412.109 39.7717 412.384 39.6983 412.678 39.625C412.971 39.5517 413.118 39.57 413.118 39.68C413.154 39.79 413.026 39.8817 412.733 39.955C412.586 39.9917 412.311 40.065 411.908 40.175C411.541 40.285 411.101 40.4133 410.588 40.56C410.111 40.7067 409.616 40.8533 409.103 41C408.626 41.11 408.204 41.2017 407.838 41.275C407.288 41.275 406.921 40.9083 406.738 40.175C406.774 39.955 406.848 39.4967 406.958 38.8C407.068 38.0667 407.178 37.2967 407.288 36.49C407.434 35.6833 407.563 34.9317 407.673 34.235C407.783 33.5017 407.838 33.025 407.838 32.805C407.838 32.4017 407.636 31.9983 407.233 31.595C406.866 31.155 406.316 30.8433 405.583 30.66C405.326 30.5867 404.831 30.5317 404.098 30.495C403.364 30.4583 402.484 30.44 401.458 30.44C400.394 30.44 399.349 30.44 398.323 30.44C397.296 30.4033 396.526 30.3483 396.013 30.275C393.226 32.805 390.879 35.115 388.973 37.205C387.103 39.295 385.691 41.0367 384.738 42.43C384.444 42.9067 384.224 43.3283 384.078 43.695C383.968 44.0983 383.876 44.6117 383.803 45.235C383.729 45.455 383.619 45.51 383.473 45.4L383.143 42.65ZM443.635 18.67C443.635 18.9633 443.58 19.2567 443.47 19.55C443.397 19.8433 443.158 20.2283 442.755 20.705C442.388 21.1817 441.802 21.7683 440.995 22.465C440.225 23.1617 439.143 24.06 437.75 25.16C437.383 25.7467 436.98 26.3883 436.54 27.085C436.1 27.7817 435.66 28.4967 435.22 29.23C434.817 29.9267 434.413 30.6417 434.01 31.375C433.643 32.0717 433.332 32.75 433.075 33.41C434.542 33.3367 436.063 33.2817 437.64 33.245C439.217 33.2083 440.702 33.1533 442.095 33.08C442.242 33.2267 442.187 33.3367 441.93 33.41C440.903 33.4833 439.968 33.575 439.125 33.685C438.318 33.7583 437.548 33.8683 436.815 34.015C436.082 34.125 435.367 34.2533 434.67 34.4C433.973 34.5467 433.222 34.7117 432.415 34.895C432.378 35.005 432.268 35.2617 432.085 35.665C431.938 36.0317 431.792 36.4533 431.645 36.93C431.498 37.37 431.352 37.8283 431.205 38.305C431.095 38.745 431.04 39.0933 431.04 39.35C431.04 40.1567 431.333 40.615 431.92 40.725C432.103 40.7617 432.195 40.835 432.195 40.945C432.232 41.0183 432.158 41.055 431.975 41.055C431.498 41.055 430.985 41.0917 430.435 41.165C429.922 41.2383 429.592 41.2933 429.445 41.33C429.298 41.33 429.133 41.2567 428.95 41.11C428.767 40.9633 428.675 40.615 428.675 40.065C428.675 39.735 428.748 39.35 428.895 38.91C429.078 38.4333 429.28 37.9567 429.5 37.48C429.72 37.0033 429.958 36.5267 430.215 36.05C430.472 35.5733 430.692 35.17 430.875 34.84C430.655 34.5467 430.325 34.3267 429.885 34.18C429.702 34.1067 429.628 33.9967 429.665 33.85C429.702 33.6667 429.812 33.575 429.995 33.575L431.7 33.465C432.433 32.1817 433.13 30.9533 433.79 29.78C434.487 28.6067 435.202 27.4333 435.935 26.26C435.495 26.59 434.963 26.9567 434.34 27.36C433.717 27.7633 433.093 28.1667 432.47 28.57C431.847 28.9367 431.242 29.285 430.655 29.615C430.105 29.9083 429.665 30.1467 429.335 30.33C428.932 30.5133 428.528 30.6233 428.125 30.66C427.758 30.6967 427.135 30.7517 426.255 30.825C425.852 30.8617 425.448 30.935 425.045 31.045C424.678 31.1183 424.312 31.2833 423.945 31.54C422.442 32.4567 421.03 33.74 419.71 35.39C418.427 37.04 417.327 38.6533 416.41 40.23C416.153 40.7067 415.897 40.9633 415.64 41C415.53 41.0367 415.273 41.11 414.87 41.22C414.503 41.33 414.302 41.2933 414.265 41.11C414.265 41.0367 414.283 40.9633 414.32 40.89L414.485 40.56C415.438 39.13 416.337 37.6633 417.18 36.16C418.023 34.6567 418.665 33.2083 419.105 31.815C419.252 31.375 419.325 30.99 419.325 30.66C419.325 30.22 419.123 30 418.72 30C418.573 30 418.372 30.0367 418.115 30.11C417.895 30.1833 417.657 30.275 417.4 30.385C417.143 30.4583 416.887 30.55 416.63 30.66C416.41 30.7333 416.245 30.8067 416.135 30.88C415.878 31.0267 415.732 31.045 415.695 30.935C415.658 30.825 415.732 30.6967 415.915 30.55C417.015 30.0367 418.06 29.6517 419.05 29.395C420.077 29.1383 420.773 29.01 421.14 29.01C421.763 29.01 422.075 29.2483 422.075 29.725C422.075 30.0183 421.91 30.4767 421.58 31.1C421.25 31.7233 420.718 32.7317 419.985 34.125C419.838 34.455 419.893 34.4917 420.15 34.235C421.03 33.3183 421.892 32.5117 422.735 31.815C423.578 31.1183 424.532 30.44 425.595 29.78C425.778 29.67 425.943 29.5783 426.09 29.505C426.273 29.395 426.512 29.34 426.805 29.34C427.978 29.34 428.968 29.285 429.775 29.175C430.582 29.065 431.242 28.8633 431.755 28.57C432.598 28.1667 433.387 27.7083 434.12 27.195C434.853 26.6817 435.587 26.1683 436.32 25.655C437.163 24.2983 437.952 23.0517 438.685 21.915C439.418 20.7783 440.06 19.8617 440.61 19.165C440.72 19.055 440.867 18.945 441.05 18.835C441.27 18.725 441.49 18.615 441.71 18.505C441.967 18.395 442.205 18.3217 442.425 18.285C442.645 18.2117 442.828 18.175 442.975 18.175C443.195 18.175 443.36 18.23 443.47 18.34C443.58 18.45 443.635 18.56 443.635 18.67ZM442.92 18.835C442.92 18.615 442.847 18.505 442.7 18.505C442.48 18.505 442.003 18.9633 441.27 19.88C440.537 20.7967 439.492 22.3367 438.135 24.5C438.392 24.28 438.777 23.9683 439.29 23.565C439.84 23.125 440.372 22.6483 440.885 22.135C441.435 21.585 441.912 21.0167 442.315 20.43C442.718 19.8433 442.92 19.3117 442.92 18.835ZM451.777 21.255C451.777 21.6217 451.612 22.0067 451.282 22.41C450.988 22.8133 450.585 23.015 450.072 23.015C449.888 23.015 449.705 22.96 449.522 22.85C449.375 22.7033 449.302 22.5383 449.302 22.355C449.302 22.0983 449.43 21.7317 449.687 21.255C449.98 20.7417 450.438 20.485 451.062 20.485C451.208 20.485 451.355 20.54 451.502 20.65C451.685 20.76 451.777 20.9617 451.777 21.255ZM458.982 26.645C458.982 26.7917 458.963 26.9933 458.927 27.25C458.89 27.47 458.78 27.7817 458.597 28.185C458.45 28.5517 458.175 29.0283 457.772 29.615C457.405 30.2017 456.892 30.935 456.232 31.815C456.268 32.4017 456.305 32.915 456.342 33.355C456.415 33.795 456.452 34.3817 456.452 35.115C456.452 35.7017 456.36 36.3983 456.177 37.205C456.03 38.0117 455.737 38.7817 455.297 39.515C454.857 40.2117 454.233 40.7983 453.427 41.275C452.657 41.7883 451.63 42.045 450.347 42.045C449.503 42.045 448.843 41.7883 448.367 41.275C447.89 40.7617 447.578 40.2483 447.432 39.735C446.698 40.175 445.855 40.56 444.902 40.89C443.985 41.22 442.94 41.385 441.767 41.385C441.253 41.385 440.85 41.2567 440.557 41C440.263 40.78 440.117 40.4317 440.117 39.955C440.117 39.075 440.648 37.7 441.712 35.83C442.812 33.96 444.168 31.815 445.782 29.395C445.855 29.2483 446.093 29.1383 446.497 29.065C446.9 28.955 447.212 28.9 447.432 28.9C447.652 28.9 447.762 28.9733 447.762 29.12C447.762 29.2667 447.652 29.5233 447.432 29.89C447.212 30.22 446.827 30.8067 446.277 31.65C445.8 32.3833 445.305 33.1717 444.792 34.015C444.315 34.8217 443.875 35.5917 443.472 36.325C443.105 37.0583 442.793 37.7183 442.537 38.305C442.317 38.855 442.207 39.2767 442.207 39.57C442.207 39.9 442.28 40.175 442.427 40.395C442.573 40.615 442.885 40.725 443.362 40.725C443.948 40.725 444.572 40.6333 445.232 40.45C445.892 40.23 446.588 39.8633 447.322 39.35C447.285 39.1667 447.267 38.8917 447.267 38.525C447.267 37.975 447.395 37.4067 447.652 36.82C448.128 36.0867 448.697 35.335 449.357 34.565C450.053 33.7583 450.64 33.0983 451.117 32.585C451.153 32.5483 451.208 32.53 451.282 32.53C451.355 32.53 451.41 32.5483 451.447 32.585C451.52 32.585 451.557 32.6217 451.557 32.695C451.557 32.7683 451.483 32.86 451.337 32.97C450.457 33.74 449.778 34.565 449.302 35.445C448.862 36.2883 448.642 37.2967 448.642 38.47C449.008 38.2133 449.448 37.865 449.962 37.425C450.512 36.9483 451.062 36.4533 451.612 35.94C452.198 35.4267 452.748 34.9133 453.262 34.4C453.812 33.8867 454.252 33.4467 454.582 33.08V32.42C454.582 31.54 454.673 30.6967 454.857 29.89C455.04 29.0467 455.278 28.3317 455.572 27.745C455.902 27.1217 456.287 26.6267 456.727 26.26C457.167 25.8933 457.643 25.71 458.157 25.71C458.707 25.71 458.982 26.0217 458.982 26.645ZM458.102 27.36C458.102 26.6633 457.9 26.315 457.497 26.315C457.167 26.315 456.91 26.4617 456.727 26.755C456.543 27.0117 456.397 27.3417 456.287 27.745C456.177 28.1117 456.103 28.4967 456.067 28.9C456.067 29.2667 456.067 29.5783 456.067 29.835C456.067 30.055 456.067 30.3117 456.067 30.605C456.103 30.8983 456.14 31.155 456.177 31.375C456.91 30.4217 457.405 29.6517 457.662 29.065C457.955 28.4783 458.102 27.91 458.102 27.36ZM454.637 35.335C454.637 35.0417 454.618 34.7667 454.582 34.51C454.582 34.2167 454.582 33.9233 454.582 33.63C453.702 34.51 452.748 35.4267 451.722 36.38C450.732 37.3333 449.705 38.2133 448.642 39.02C448.788 39.8633 449.082 40.505 449.522 40.945C449.998 41.385 450.548 41.605 451.172 41.605C451.612 41.605 452.033 41.5133 452.437 41.33C452.877 41.1467 453.243 40.8167 453.537 40.34C453.867 39.8633 454.123 39.2217 454.307 38.415C454.527 37.6083 454.637 36.5817 454.637 35.335ZM472.961 20.925C472.668 20.9983 472.338 21.145 471.971 21.365C471.605 21.5483 471.33 21.7867 471.146 22.08C470.303 23.2533 469.478 24.4817 468.671 25.765C467.901 27.0483 467.15 28.3317 466.416 29.615H473.236C473.346 29.6883 473.401 29.7617 473.401 29.835C473.401 29.9083 473.365 29.9633 473.291 30C472.998 30 472.558 30.0183 471.971 30.055C471.385 30.055 470.743 30.0733 470.046 30.11C469.35 30.1467 468.635 30.1833 467.901 30.22C467.168 30.2567 466.526 30.2933 465.976 30.33C464.95 32.1633 464.161 33.7217 463.611 35.005C463.061 36.2883 462.786 37.4067 462.786 38.36C462.786 39.68 463.391 40.34 464.601 40.34C465.188 40.34 465.848 40.1933 466.581 39.9C467.351 39.57 468.158 39.1483 469.001 38.635C469.111 38.525 469.221 38.5433 469.331 38.69C469.441 38.8 469.405 38.8917 469.221 38.965C467.975 39.7717 466.82 40.3583 465.756 40.725C464.693 41.0917 463.611 41.275 462.511 41.275C461.925 41.275 461.411 41.11 460.971 40.78C460.531 40.4133 460.311 39.8083 460.311 38.965C460.311 38.2317 460.641 37.15 461.301 35.72C461.961 34.29 462.933 32.53 464.216 30.44C463.776 30.4767 463.226 30.5317 462.566 30.605C461.943 30.6417 461.576 30.66 461.466 30.66C461.283 30.66 461.191 30.5867 461.191 30.44C461.338 30.1833 461.576 29.9267 461.906 29.67L464.711 29.615C465.041 29.065 465.408 28.46 465.811 27.8C466.215 27.1033 466.618 26.425 467.021 25.765C467.425 25.0683 467.828 24.4083 468.231 23.785C468.671 23.125 469.056 22.52 469.386 21.97C469.79 21.7867 470.34 21.5483 471.036 21.255C471.77 20.9617 472.411 20.7233 472.961 20.54C473.035 20.54 473.09 20.595 473.126 20.705C473.163 20.7783 473.108 20.8517 472.961 20.925ZM478.959 30.935C478.849 31.1183 478.757 31.1367 478.684 30.99C478.464 30.5133 478.005 30.275 477.309 30.275C476.795 30.275 476.282 30.4217 475.769 30.715C475.255 31.0083 474.999 31.4483 474.999 32.035C474.999 32.3283 475.09 32.6217 475.274 32.915C475.457 33.2083 475.714 33.5933 476.044 34.07C476.337 34.51 476.612 34.95 476.869 35.39C477.125 35.83 477.254 36.2883 477.254 36.765C477.254 37.7183 477.034 38.5067 476.594 39.13C476.154 39.7167 475.622 40.1933 474.999 40.56C474.412 40.9267 473.807 41.165 473.184 41.275C472.56 41.4217 472.065 41.495 471.699 41.495C469.462 41.495 468.234 40.7433 468.014 39.24C468.197 39.13 468.399 39.0017 468.619 38.855C468.875 38.6717 469.059 38.5067 469.169 38.36C469.242 38.36 469.297 38.4333 469.334 38.58C469.517 39.24 469.865 39.8083 470.379 40.285C470.892 40.7617 471.497 41 472.194 41C472.487 41 472.835 40.9817 473.239 40.945C473.642 40.8717 474.009 40.7433 474.339 40.56C474.705 40.34 475.017 40.0467 475.274 39.68C475.53 39.3133 475.659 38.8183 475.659 38.195C475.659 37.7183 475.567 37.2783 475.384 36.875C475.2 36.4717 474.999 36.105 474.779 35.775C474.559 35.4083 474.339 35.0417 474.119 34.675C473.899 34.3083 473.789 33.905 473.789 33.465C473.789 33.025 473.935 32.5483 474.229 32.035C474.559 31.5217 474.962 31.0633 475.439 30.66C475.915 30.22 476.429 29.8533 476.979 29.56C477.565 29.2667 478.134 29.12 478.684 29.12C479.27 29.12 479.564 29.3033 479.564 29.67C479.454 29.8533 479.344 30.0733 479.234 30.33C479.124 30.55 479.032 30.7517 478.959 30.935Z" fill="white"/>
</svg>
