<svg width="29" height="36" viewBox="0 0 29 36" fill="none" xmlns="http://www.w3.org/2000/svg">
<g id="Group 33">
<g id="Group 34">
<path id="Polygon 2" d="M4 8.79688L14.5562 1.17857L14.5562 16.4152L4 8.79688Z" fill="white"/>
<g id="Ellipse 3" filter="url(#filter0_d_89_14)">
<path d="M12.242 8.84207C13.8721 8.39548 15.598 8.4423 17.2015 8.97662C18.805 9.51094 20.2141 10.5087 21.2505 11.8439C22.2869 13.179 22.9041 14.7915 23.0241 16.4774C23.1441 18.1633 22.7615 19.8469 21.9246 21.3154C21.0877 22.7838 19.8342 23.9711 18.3225 24.7272C16.8109 25.4832 15.109 25.774 13.432 25.5628C11.7551 25.3515 10.1785 24.6478 8.9015 23.5405C7.62453 22.4332 6.70459 20.9722 6.258 19.3421" stroke="white" stroke-width="3"/>
</g>
</g>
</g>
<defs>
<filter id="filter0_d_89_14" x="0.811279" y="7.03839" width="27.7344" height="28.0914" filterUnits="userSpaceOnUse" color-interpolation-filters="sRGB">
<feFlood flood-opacity="0" result="BackgroundImageFix"/>
<feColorMatrix in="SourceAlpha" type="matrix" values="0 0 0 0 0 0 0 0 0 0 0 0 0 0 0 0 0 0 127 0" result="hardAlpha"/>
<feOffset dy="4"/>
<feGaussianBlur stdDeviation="2"/>
<feComposite in2="hardAlpha" operator="out"/>
<feColorMatrix type="matrix" values="0 0 0 0 0 0 0 0 0 0 0 0 0 0 0 0 0 0 0.25 0"/>
<feBlend mode="normal" in2="BackgroundImageFix" result="effect1_dropShadow_89_14"/>
<feBlend mode="normal" in="SourceGraphic" in2="effect1_dropShadow_89_14" result="shape"/>
</filter>
</defs>
</svg>
