<svg width="1284" height="535" viewBox="0 0 1284 535" fill="none" xmlns="http://www.w3.org/2000/svg">
<g clip-path="url(#clip0_82_3)">
<path d="M625.28 249.31L630.95 249.31L630.95 243.64L625.28 243.64L625.28 249.31Z" fill="white"/>
<path d="M647.88 249.31L653.55 249.31L653.55 243.64L647.88 243.64L647.88 249.31Z" fill="white"/>
<path d="M602.74 249.31L608.41 249.31L608.41 243.64L602.74 243.64L602.74 249.31Z" fill="white"/>
<path d="M580.17 249.31L585.84 249.31L585.84 243.64L580.17 243.64L580.17 249.31Z" fill="white"/>
<path d="M557.6 249.31L563.27 249.31L563.27 243.64L557.6 243.64L557.6 249.31Z" fill="white"/>
<path d="M535.03 249.31L540.7 249.31L540.7 243.64L535.03 243.64L535.03 249.31Z" fill="white"/>
<path d="M512.7 249.31L518.37 249.31L518.37 243.64L512.7 243.64L512.7 249.31Z" fill="white"/>
<path d="M490.13 249.31L495.8 249.31L495.8 243.64L490.13 243.64L490.13 249.31Z" fill="white"/>
<path d="M467.5 249.31L473.17 249.31L473.17 243.64L467.5 243.64L467.5 249.31Z" fill="white"/>
<path d="M399.61 249.31L405.28 249.31L405.28 243.64L399.61 243.64L399.61 249.31Z" fill="white"/>
<path d="M377.04 249.31L382.71 249.31L382.71 243.64L377.04 243.64L377.04 249.31Z" fill="white"/>
<path d="M354.44 249.31L360.11 249.31L360.11 243.64L354.44 243.64L354.44 249.31Z" fill="white"/>
<path d="M331.89 249.31L337.56 249.31L337.56 243.64L331.89 243.64L331.89 249.31Z" fill="white"/>
<path d="M309.33 249.31L315 249.31L315 243.64L309.33 243.64L309.33 249.31Z" fill="white"/>
<path d="M286.77 249.31L292.44 249.31L292.44 243.64L286.77 243.64L286.77 249.31Z" fill="white"/>
<path d="M264.46 249.31L270.13 249.31L270.13 243.64L264.46 243.64L264.46 249.31Z" fill="white"/>
<path d="M241.87 249.31L247.54 249.31L247.54 243.64L241.87 243.64L241.87 249.31Z" fill="white"/>
<path d="M399.61 232.38L405.28 232.38L405.28 226.71L399.61 226.71L399.61 232.38Z" fill="white"/>
<path d="M339.97 232.38L345.64 232.38L345.64 226.71L339.97 226.71L339.97 232.38Z" fill="white"/>
<path d="M275.48 232.38L281.15 232.38L281.15 226.71L275.48 226.71L275.48 232.38Z" fill="white"/>
<path d="M542.58 232.38L548.25 232.38L548.25 226.71L542.58 226.71L542.58 232.38Z" fill="white"/>
<path d="M500.2 232.38L505.87 232.38L505.87 226.71L500.2 226.71L500.2 232.38Z" fill="white"/>
<path d="M462.12 232.38L467.79 232.38L467.79 226.71L462.12 226.71L462.12 232.38Z" fill="white"/>
<path d="M422.2 232.38L427.87 232.38L427.87 226.71L422.2 226.71L422.2 232.38Z" fill="white"/>
<path d="M631.44 125.87L637.11 125.87L637.11 120.2L631.44 120.2L631.44 125.87Z" fill="white"/>
<path d="M608.87 125.87L614.54 125.87L614.54 120.2L608.87 120.2L608.87 125.87Z" fill="white"/>
<path d="M563.73 125.87L569.4 125.87L569.4 120.2L563.73 120.2L563.73 125.87Z" fill="white"/>
<path d="M518.59 125.87L524.26 125.87L524.26 120.2L518.59 120.2L518.59 125.87Z" fill="white"/>
<path d="M473.42 125.87L479.09 125.87L479.09 120.2L473.42 120.2L473.42 125.87Z" fill="white"/>
<path d="M496.02 125.87L501.69 125.87L501.69 120.2L496.02 120.2L496.02 125.87Z" fill="white"/>
<path d="M450.88 125.87L456.55 125.87L456.55 120.2L450.88 120.2L450.88 125.87Z" fill="white"/>
<path d="M428.3 125.87L433.97 125.87L433.97 120.2L428.3 120.2L428.3 125.87Z" fill="white"/>
<path d="M405.73 125.87L411.4 125.87L411.4 120.2L405.73 120.2L405.73 125.87Z" fill="white"/>
<path d="M383.17 125.87L388.84 125.87L388.84 120.2L383.17 120.2L383.17 125.87Z" fill="white"/>
<path d="M360.84 125.87L366.51 125.87L366.51 120.2L360.84 120.2L360.84 125.87Z" fill="white"/>
<path d="M338.26 125.87L343.93 125.87L343.93 120.2L338.26 120.2L338.26 125.87Z" fill="white"/>
<path d="M315.64 125.87L321.31 125.87L321.31 120.2L315.64 120.2L315.64 125.87Z" fill="white"/>
<path d="M247.75 125.87L253.42 125.87L253.42 120.2L247.75 120.2L247.75 125.87Z" fill="white"/>
<path d="M586.3 125.87L591.97 125.87L591.97 120.2L586.3 120.2L586.3 125.87Z" fill="white"/>
<path d="M541.16 125.87L546.83 125.87L546.83 120.2L541.16 120.2L541.16 125.87Z" fill="white"/>
<path d="M247.75 108.94L253.42 108.94L253.42 103.27L247.75 103.27L247.75 108.94Z" fill="white"/>
<path d="M390.71 108.94L396.38 108.94L396.38 103.27L390.71 103.27L390.71 108.94Z" fill="white"/>
<path d="M348.33 108.94L354 108.94L354 103.27L348.33 103.27L348.33 108.94Z" fill="white"/>
<path d="M310.26 108.94L315.93 108.94L315.93 103.27L310.26 103.27L310.26 108.94Z" fill="white"/>
<path d="M270.33 108.94L276 108.94L276 103.27L270.33 103.27L270.33 108.94Z" fill="white"/>
<path d="M586.3 108.94L591.97 108.94L591.97 103.27L586.3 103.27L586.3 108.94Z" fill="white"/>
<path d="M541.16 108.94L546.83 108.94L546.83 103.27L541.16 103.27L541.16 108.94Z" fill="white"/>
<path d="M233.66 143.94L227.99 143.94L227.99 149.61L233.66 149.61L233.66 143.94Z" fill="white"/>
<path d="M256.22 143.94L250.55 143.94L250.55 149.61L256.22 149.61L256.22 143.94Z" fill="white"/>
<path d="M436.8 143.94L431.13 143.94L431.13 149.61L436.8 149.61L436.8 143.94Z" fill="white"/>
<path d="M459.37 143.94L453.7 143.94L453.7 149.61L459.37 149.61L459.37 143.94Z" fill="white"/>
<path d="M481.95 143.94L476.28 143.94L476.28 149.61L481.95 149.61L481.95 143.94Z" fill="white"/>
<path d="M504.5 143.94L498.83 143.94L498.83 149.61L504.5 149.61L504.5 143.94Z" fill="white"/>
<path d="M527.07 143.94L521.4 143.94L521.4 149.61L527.07 149.61L527.07 143.94Z" fill="white"/>
<path d="M549.64 143.94L543.97 143.94L543.97 149.61L549.64 149.61L549.64 143.94Z" fill="white"/>
<path d="M572.22 143.94L566.55 143.94L566.55 149.61L572.22 149.61L572.22 143.94Z" fill="white"/>
<path d="M594.79 143.94L589.12 143.94L589.12 149.61L594.79 149.61L594.79 143.94Z" fill="white"/>
<path d="M617.35 143.94L611.68 143.94L611.68 149.61L617.35 149.61L617.35 143.94Z" fill="white"/>
<path d="M639.93 143.94L634.26 143.94L634.26 149.61L639.93 149.61L639.93 143.94Z" fill="white"/>
<path d="M270.67 160.88L265 160.88L265 166.55L270.67 166.55L270.67 160.88Z" fill="white"/>
<path d="M301.38 160.88L295.71 160.88L295.71 166.55L301.38 166.55L301.38 160.88Z" fill="white"/>
<path d="M323.97 160.88L318.3 160.88L318.3 166.55L323.97 166.55L323.97 160.88Z" fill="white"/>
<path d="M391.66 160.88L385.99 160.88L385.99 166.55L391.66 166.55L391.66 160.88Z" fill="white"/>
<path d="M436.81 160.88L431.14 160.88L431.14 166.55L436.81 166.55L436.81 160.88Z" fill="white"/>
<path d="M481.95 160.88L476.28 160.88L476.28 166.55L481.95 166.55L481.95 160.88Z" fill="white"/>
<path d="M504.52 160.88L498.85 160.88L498.85 166.55L504.52 166.55L504.52 160.88Z" fill="white"/>
<path d="M527.09 160.88L521.42 160.88L521.42 166.55L527.09 166.55L527.09 160.88Z" fill="white"/>
<path d="M549.66 160.88L543.99 160.88L543.99 166.55L549.66 166.55L549.66 160.88Z" fill="white"/>
<path d="M617.37 160.88L611.7 160.88L611.7 166.55L617.37 166.55L617.37 160.88Z" fill="white"/>
<path d="M464.32 160.88L458.65 160.88L458.65 166.55L464.32 166.55L464.32 160.88Z" fill="white"/>
</g>
<path d="M5.56328 286H0V291.663H5.56328V286Z" fill="white"/>
<path d="M27.7674 286H22.2041V291.663H27.7674V286Z" fill="white"/>
<path d="M49.9126 286H44.3493V291.663H49.9126V286Z" fill="white"/>
<path d="M72.048 286H66.4847V291.663H72.048V286Z" fill="white"/>
<path d="M94.2128 286H88.6495V291.663H94.2128V286Z" fill="white"/>
<path d="M116.348 286H110.785V291.663H116.348V286Z" fill="white"/>
<path d="M138.493 286H132.93V291.663H138.493V286Z" fill="white"/>
<path d="M160.639 286H155.075V291.663H160.639V286Z" fill="white"/>
<path d="M182.784 286H177.221V291.663H182.784V286Z" fill="white"/>
<path d="M204.929 286H199.366V291.663H204.929V286Z" fill="white"/>
<path d="M227.074 286H221.511V291.663H227.074V286Z" fill="white"/>
<path d="M249.219 286H243.656V291.663H249.219V286Z" fill="white"/>
<path d="M271.188 286H265.625V291.663H271.188V286Z" fill="white"/>
<path d="M293.51 286H287.947V291.663H293.51V286Z" fill="white"/>
<path d="M315.655 286H310.092V291.663H315.655V286Z" fill="white"/>
<path d="M359.945 286H354.382V291.663H359.945V286Z" fill="white"/>
<path d="M404.236 286H398.673V291.663H404.236V286Z" fill="white"/>
<path d="M448.556 286H442.992V291.663H448.556V286Z" fill="white"/>
<path d="M426.381 286H420.818V291.663H426.381V286Z" fill="white"/>
<path d="M470.671 286H465.108V291.663H470.671V286Z" fill="white"/>
<path d="M492.826 286H487.263V291.663H492.826V286Z" fill="white"/>
<path d="M514.972 286H509.408V291.663H514.972V286Z" fill="white"/>
<path d="M537.107 286H531.544V291.663H537.107V286Z" fill="white"/>
<path d="M559.017 286H553.454V291.663H559.017V286Z" fill="white"/>
<path d="M581.172 286H575.609V291.663H581.172V286Z" fill="white"/>
<path d="M603.366 286H597.803V291.663H603.366V286Z" fill="white"/>
<path d="M337.8 286H332.237V291.663H337.8V286Z" fill="white"/>
<path d="M382.091 286H376.527V291.663H382.091V286Z" fill="white"/>
<path d="M27.7674 302.909H22.2041V308.572H27.7674V302.909Z" fill="white"/>
<path d="M94.2128 302.909H88.6495V308.572H94.2128V302.909Z" fill="white"/>
<path d="M116.348 302.909H110.785V308.572H116.348V302.909Z" fill="white"/>
<path d="M529.709 302.909H524.146V308.572H529.709V302.909Z" fill="white"/>
<path d="M571.291 302.909H565.728V308.572H571.291V302.909Z" fill="white"/>
<path d="M160.639 302.909H155.075V308.572H160.639V302.909Z" fill="white"/>
<path d="M213.554 302.909H207.99V308.572H213.554V302.909Z" fill="white"/>
<path d="M249.219 302.909H243.656V308.572H249.219V302.909Z" fill="white"/>
<path d="M337.8 302.909H332.237V308.572H337.8V302.909Z" fill="white"/>
<path d="M382.091 302.909H376.527V308.572H382.091V302.909Z" fill="white"/>
<path d="M575.403 474.885H569.839V480.548H575.403V474.885Z" fill="white"/>
<path d="M597.528 474.885H591.965V480.548H597.528V474.885Z" fill="white"/>
<path d="M619.663 474.885H614.1V480.548H619.663V474.885Z" fill="white"/>
<path d="M641.799 474.885H636.236V480.548H641.799V474.885Z" fill="white"/>
<path d="M663.944 474.885H658.381V480.548H663.944V474.885Z" fill="white"/>
<path d="M686.079 474.885H680.516V480.548H686.079V474.885Z" fill="white"/>
<path d="M708.234 474.885H702.671V480.548H708.234V474.885Z" fill="white"/>
<path d="M730.429 474.905H724.865V480.568H730.429V474.905Z" fill="white"/>
<path d="M752.584 474.905H747.02V480.568H752.584V474.905Z" fill="white"/>
<path d="M774.739 474.905H769.175V480.568H774.739V474.905Z" fill="white"/>
<path d="M797.178 474.905H791.615V480.568H797.178V474.905Z" fill="white"/>
<path d="M819.01 474.905H813.446V480.568H819.01V474.905Z" fill="white"/>
<path d="M841.155 474.905H835.591V480.568H841.155V474.905Z" fill="white"/>
<path d="M863.271 474.905H857.707V480.568H863.271V474.905Z" fill="white"/>
<path d="M929.706 474.865H924.143V480.528H929.706V474.865Z" fill="white"/>
<path d="M951.832 474.905H946.268V480.568H951.832V474.905Z" fill="white"/>
<path d="M973.997 474.955H968.433V480.618H973.997V474.955Z" fill="white"/>
<path d="M996.132 474.905H990.569V480.568H996.132V474.905Z" fill="white"/>
<path d="M1018.25 474.905H1012.68V480.568H1018.25V474.905Z" fill="white"/>
<path d="M1040.43 474.905H1034.87V480.568H1040.43V474.905Z" fill="white"/>
<path d="M1062.57 474.905H1057V480.568H1062.57V474.905Z" fill="white"/>
<path d="M1084.69 474.905H1079.13V480.568H1084.69V474.905Z" fill="white"/>
<path d="M1106.87 474.905H1101.3V480.568H1106.87V474.905Z" fill="white"/>
<path d="M1129.01 474.865H1123.45V480.528H1129.01V474.865Z" fill="white"/>
<path d="M1151.16 474.865H1145.59V480.528H1151.16V474.865Z" fill="white"/>
<path d="M1173.27 474.905H1167.71V480.568H1173.27V474.905Z" fill="white"/>
<path d="M1195.44 474.855H1189.88V480.518H1195.44V474.855Z" fill="white"/>
<path d="M1217.59 474.905H1212.03V480.568H1217.59V474.905Z" fill="white"/>
<path d="M575.403 491.814H569.839V497.477H575.403V491.814Z" fill="white"/>
<path d="M597.528 491.814H591.965V497.477H597.528V491.814Z" fill="white"/>
<path d="M619.663 491.814H614.1V497.477H619.663V491.814Z" fill="white"/>
<path d="M641.799 491.814H636.236V497.477H641.799V491.814Z" fill="white"/>
<path d="M663.944 491.814H658.381V497.477H663.944V491.814Z" fill="white"/>
<path d="M686.079 491.814H680.516V497.477H686.079V491.814Z" fill="white"/>
<path d="M708.234 491.814H702.671V497.477H708.234V491.814Z" fill="white"/>
<path d="M730.429 491.834H724.865V497.497H730.429V491.834Z" fill="white"/>
<path d="M752.584 491.834H747.02V497.497H752.584V491.834Z" fill="white"/>
<path d="M774.739 491.834H769.175V497.497H774.739V491.834Z" fill="white"/>
<path d="M797.178 491.834H791.615V497.497H797.178V491.834Z" fill="white"/>
<path d="M819.01 491.834H813.446V497.497H819.01V491.834Z" fill="white"/>
<path d="M841.155 491.834H835.591V497.497H841.155V491.834Z" fill="white"/>
<path d="M863.271 491.834H857.707V497.497H863.271V491.834Z" fill="white"/>
<path d="M929.706 491.794H924.143V497.457H929.706V491.794Z" fill="white"/>
<path d="M951.832 491.834H946.268V497.497H951.832V491.834Z" fill="white"/>
<path d="M973.997 491.874H968.433V497.537H973.997V491.874Z" fill="white"/>
<path d="M996.132 491.834H990.569V497.497H996.132V491.834Z" fill="white"/>
<path d="M1018.25 491.834H1012.68V497.497H1018.25V491.834Z" fill="white"/>
<path d="M1040.43 491.834H1034.87V497.497H1040.43V491.834Z" fill="white"/>
<path d="M1062.57 491.834H1057V497.497H1062.57V491.834Z" fill="white"/>
<path d="M1084.69 491.834H1079.13V497.497H1084.69V491.834Z" fill="white"/>
<path d="M1106.87 491.834H1101.3V497.497H1106.87V491.834Z" fill="white"/>
<path d="M1129.01 491.794H1123.45V497.457H1129.01V491.794Z" fill="white"/>
<path d="M1151.16 491.794H1145.59V497.457H1151.16V491.794Z" fill="white"/>
<path d="M1173.27 491.834H1167.71V497.497H1173.27V491.834Z" fill="white"/>
<path d="M1195.44 491.784H1189.88V497.447H1195.44V491.784Z" fill="white"/>
<path d="M1217.59 491.834H1212.03V497.497H1217.59V491.834Z" fill="white"/>
<path d="M575.403 512.288H569.839V517.951H575.403V512.288Z" fill="white"/>
<path d="M597.538 512.288H591.975V517.951H597.538V512.288Z" fill="white"/>
<path d="M619.663 512.288H614.1V517.951H619.663V512.288Z" fill="white"/>
<path d="M641.809 512.288H636.245V517.951H641.809V512.288Z" fill="white"/>
<path d="M663.954 512.288H658.391V517.951H663.954V512.288Z" fill="white"/>
<path d="M686.089 512.288H680.526V517.951H686.089V512.288Z" fill="white"/>
<path d="M708.244 512.288H702.681V517.951H708.244V512.288Z" fill="white"/>
<path d="M730.429 512.298H724.865V517.961H730.429V512.298Z" fill="white"/>
<path d="M752.594 512.298H747.03V517.961H752.594V512.298Z" fill="white"/>
<path d="M774.739 512.298H769.175V517.961H774.739V512.298Z" fill="white"/>
<path d="M797.178 512.298H791.615V517.961H797.178V512.298Z" fill="white"/>
<path d="M819.01 512.298H813.446V517.961H819.01V512.298Z" fill="white"/>
<path d="M841.155 512.298H835.591V517.961H841.155V512.298Z" fill="white"/>
<path d="M863.271 512.298H857.707V517.961H863.271V512.298Z" fill="white"/>
<path d="M885.386 512.298H879.823V517.961H885.386V512.298Z" fill="white"/>
<path d="M907.561 512.298H901.998V517.961H907.561V512.298Z" fill="white"/>
<path d="M929.716 512.268H924.153V517.931H929.716V512.268Z" fill="white"/>
<path d="M1062.57 512.298H1057V517.961H1062.57V512.298Z" fill="white"/>
<path d="M1084.69 512.298H1079.13V517.961H1084.69V512.298Z" fill="white"/>
<path d="M1106.87 512.298H1101.3V517.961H1106.87V512.298Z" fill="white"/>
<path d="M1129.02 512.258H1123.46V517.921H1129.02V512.258Z" fill="white"/>
<path d="M1151.17 512.258H1145.6V517.921H1151.17V512.258Z" fill="white"/>
<path d="M1173.28 512.298H1167.72V517.961H1173.28V512.298Z" fill="white"/>
<path d="M1195.45 512.248H1189.89V517.911H1195.45V512.248Z" fill="white"/>
<path d="M1217.59 512.298H1212.03V517.961H1217.59V512.298Z" fill="white"/>
<path d="M575.403 529.317H569.839V534.98H575.403V529.317Z" fill="white"/>
<path d="M597.538 529.317H591.975V534.98H597.538V529.317Z" fill="white"/>
<path d="M619.663 529.317H614.1V534.98H619.663V529.317Z" fill="white"/>
<path d="M641.809 529.317H636.245V534.98H641.809V529.317Z" fill="white"/>
<path d="M663.954 529.317H658.391V534.98H663.954V529.317Z" fill="white"/>
<path d="M686.089 529.317H680.526V534.98H686.089V529.317Z" fill="white"/>
<path d="M708.244 529.317H702.681V534.98H708.244V529.317Z" fill="white"/>
<path d="M730.429 529.337H724.865V535H730.429V529.337Z" fill="white"/>
<path d="M752.594 529.337H747.03V535H752.594V529.337Z" fill="white"/>
<path d="M774.739 529.337H769.175V535H774.739V529.337Z" fill="white"/>
<path d="M797.178 529.337H791.615V535H797.178V529.337Z" fill="white"/>
<path d="M819.01 529.337H813.446V535H819.01V529.337Z" fill="white"/>
<path d="M841.155 529.337H835.591V535H841.155V529.337Z" fill="white"/>
<path d="M863.271 529.337H857.707V535H863.271V529.337Z" fill="white"/>
<path d="M885.386 529.337H879.823V535H885.386V529.337Z" fill="white"/>
<path d="M907.561 529.337H901.998V535H907.561V529.337Z" fill="white"/>
<path d="M929.716 529.297H924.153V534.96H929.716V529.297Z" fill="white"/>
<path d="M1062.57 529.337H1057V535H1062.57V529.337Z" fill="white"/>
<path d="M1084.69 529.337H1079.13V535H1084.69V529.337Z" fill="white"/>
<path d="M1106.87 529.337H1101.3V535H1106.87V529.337Z" fill="white"/>
<path d="M1129.02 529.297H1123.46V534.96H1129.02V529.297Z" fill="white"/>
<path d="M1151.17 529.297H1145.6V534.96H1151.17V529.297Z" fill="white"/>
<path d="M1173.28 529.337H1167.72V535H1173.28V529.337Z" fill="white"/>
<path d="M1195.45 529.287H1189.89V534.95H1195.45V529.287Z" fill="white"/>
<path d="M1217.59 529.337H1212.03V535H1217.59V529.337Z" fill="white"/>
<path d="M154.565 409.286H149.002V414.949H154.565V409.286Z" fill="white"/>
<path d="M176.779 409.286H171.216V414.949H176.779V409.286Z" fill="white"/>
<path d="M198.914 409.286H193.351V414.949H198.914V409.286Z" fill="white"/>
<path d="M221.05 409.286H215.486V414.949H221.05V409.286Z" fill="white"/>
<path d="M243.224 409.286H237.661V414.949H243.224V409.286Z" fill="white"/>
<path d="M265.36 409.286H259.797V414.949H265.36V409.286Z" fill="white"/>
<path d="M287.505 409.286H281.942V414.949H287.505V409.286Z" fill="white"/>
<path d="M309.65 409.286H304.087V414.949H309.65V409.286Z" fill="white"/>
<path d="M331.795 409.286H326.232V414.949H331.795V409.286Z" fill="white"/>
<path d="M353.941 409.286H348.377V414.949H353.941V409.286Z" fill="white"/>
<path d="M376.086 409.286H370.523V414.949H376.086V409.286Z" fill="white"/>
<path d="M398.231 409.286H392.668V414.949H398.231V409.286Z" fill="white"/>
<path d="M420.2 409.286H414.636V414.949H420.2V409.286Z" fill="white"/>
<path d="M442.521 409.286H436.958V414.949H442.521V409.286Z" fill="white"/>
<path d="M464.667 409.286H459.103V414.949H464.667V409.286Z" fill="white"/>
<path d="M508.957 409.286H503.394V414.949H508.957V409.286Z" fill="white"/>
<path d="M553.247 409.286H547.684V414.949H553.247V409.286Z" fill="white"/>
<path d="M597.558 409.286H591.994V414.949H597.558V409.286Z" fill="white"/>
<path d="M575.393 409.286H569.829V414.949H575.393V409.286Z" fill="white"/>
<path d="M619.683 409.286H614.12V414.949H619.683V409.286Z" fill="white"/>
<path d="M641.828 409.286H636.265V414.949H641.828V409.286Z" fill="white"/>
<path d="M663.974 409.286H658.41V414.949H663.974V409.286Z" fill="white"/>
<path d="M686.119 409.286H680.555V414.949H686.119V409.286Z" fill="white"/>
<path d="M708.019 409.286H702.455V414.949H708.019V409.286Z" fill="white"/>
<path d="M730.174 409.286H724.61V414.949H730.174V409.286Z" fill="white"/>
<path d="M752.378 409.286H746.814V414.949H752.378V409.286Z" fill="white"/>
<path d="M818.99 409.286H813.427V414.949H818.99V409.286Z" fill="white"/>
<path d="M841.135 409.286H835.572V414.949H841.135V409.286Z" fill="white"/>
<path d="M863.31 409.286H857.747V414.949H863.31V409.286Z" fill="white"/>
<path d="M885.435 409.286H879.872V414.949H885.435V409.286Z" fill="white"/>
<path d="M486.812 409.286H481.249V414.949H486.812V409.286Z" fill="white"/>
<path d="M531.102 409.286H525.539V414.949H531.102V409.286Z" fill="white"/>
<path d="M176.779 426.195H171.216V431.858H176.779V426.195Z" fill="white"/>
<path d="M243.224 426.195H237.661V431.858H243.224V426.195Z" fill="white"/>
<path d="M265.36 426.195H259.797V431.858H265.36V426.195Z" fill="white"/>
<path d="M818.99 426.195H813.427V431.858H818.99V426.195Z" fill="white"/>
<path d="M877.507 426.195H871.944V431.858H877.507V426.195Z" fill="white"/>
<path d="M678.711 426.195H673.148V431.858H678.711V426.195Z" fill="white"/>
<path d="M720.293 426.195H714.73V431.858H720.293V426.195Z" fill="white"/>
<path d="M757.656 426.195H752.093V431.858H757.656V426.195Z" fill="white"/>
<path d="M796.825 426.195H791.262V431.858H796.825V426.195Z" fill="white"/>
<path d="M309.65 426.195H304.087V431.858H309.65V426.195Z" fill="white"/>
<path d="M362.555 426.195H356.992V431.858H362.555V426.195Z" fill="white"/>
<path d="M398.231 426.195H392.668V431.858H398.231V426.195Z" fill="white"/>
<path d="M486.812 426.195H481.249V431.858H486.812V426.195Z" fill="white"/>
<path d="M531.102 426.195H525.539V431.858H531.102V426.195Z" fill="white"/>
<path d="M877.085 391.239H882.649V385.576H877.085V391.239Z" fill="white"/>
<path d="M854.94 391.239H860.504V385.576H854.94V391.239Z" fill="white"/>
<path d="M832.795 391.239H838.358V385.576H832.795V391.239Z" fill="white"/>
<path d="M810.67 391.239H816.233V385.576H810.67V391.239Z" fill="white"/>
<path d="M633.488 391.239H639.052V385.576H633.488V391.239Z" fill="white"/>
<path d="M611.343 391.239H616.906V385.576H611.343V391.239Z" fill="white"/>
<path d="M589.198 391.239H594.761V385.576H589.198V391.239Z" fill="white"/>
<path d="M567.072 391.239H572.636V385.576H567.072V391.239Z" fill="white"/>
<path d="M544.927 391.239H550.49V385.576H544.927V391.239Z" fill="white"/>
<path d="M522.772 391.239H528.335V385.576H522.772V391.239Z" fill="white"/>
<path d="M500.617 391.239H506.18V385.576H500.617V391.239Z" fill="white"/>
<path d="M478.472 391.239H484.035V385.576H478.472V391.239Z" fill="white"/>
<path d="M456.346 391.239H461.91V385.576H456.346V391.239Z" fill="white"/>
<path d="M434.181 391.239H439.745V385.576H434.181V391.239Z" fill="white"/>
<path d="M412.036 391.239H417.599V385.576H412.036V391.239Z" fill="white"/>
<path d="M389.911 391.239H395.474V385.576H389.911V391.239Z" fill="white"/>
<path d="M796.501 374.32H802.065V368.657H796.501V374.32Z" fill="white"/>
<path d="M766.36 374.32H771.923V368.657H766.36V374.32Z" fill="white"/>
<path d="M744.204 374.32H749.768V368.657H744.204V374.32Z" fill="white"/>
<path d="M677.779 374.32H683.342V368.657H677.779V374.32Z" fill="white"/>
<path d="M633.488 374.32H639.052V368.657H633.488V374.32Z" fill="white"/>
<path d="M589.188 374.32H594.751V368.657H589.188V374.32Z" fill="white"/>
<path d="M567.053 374.32H572.616V368.657H567.053V374.32Z" fill="white"/>
<path d="M544.907 374.32H550.471V368.657H544.907V374.32Z" fill="white"/>
<path d="M522.762 374.32H528.326V368.657H522.762V374.32Z" fill="white"/>
<path d="M456.327 374.32H461.89V368.657H456.327V374.32Z" fill="white"/>
<path d="M389.891 374.32H395.454V368.657H389.891V374.32Z" fill="white"/>
<path d="M606.486 374.32H612.049V368.657H606.486V374.32Z" fill="white"/>
<defs>
<clipPath id="clip0_82_3">
<rect width="425.55" height="249.31" fill="white" transform="translate(653.55 249.31) rotate(-180)"/>
</clipPath>
</defs>
</svg>
